G75*
%MOIN*%
%OFA0B0*%
%FSLAX25Y25*%
%IPPOS*%
%LPD*%
%AMOC8*
5,1,8,0,0,1.08239X$1,22.5*
%
%ADD10C,0.06800*%
%ADD11OC8,0.06800*%
%ADD12C,0.08800*%
%ADD13C,0.08200*%
%ADD14C,0.07300*%
%ADD15C,0.05950*%
%ADD16C,0.08200*%
%ADD17C,0.06000*%
%ADD18OC8,0.07400*%
D10*
X0014948Y0193056D02*
X0014948Y0199056D01*
X0024948Y0199056D02*
X0024948Y0193056D01*
X0034948Y0193056D02*
X0034948Y0199056D01*
X0024948Y0209056D02*
X0024948Y0215056D01*
X0014948Y0215056D02*
X0014948Y0209056D01*
X0054948Y0199056D02*
X0054948Y0193056D01*
X0064948Y0193056D02*
X0064948Y0199056D01*
X0064948Y0209056D02*
X0064948Y0215056D01*
X0094948Y0199056D02*
X0094948Y0193056D01*
X0134948Y0193056D02*
X0134948Y0199056D01*
X0204948Y0199056D02*
X0204948Y0193056D01*
X0204948Y0209056D02*
X0204948Y0215056D01*
X0202385Y0096209D02*
X0208385Y0096209D01*
X0208385Y0086209D02*
X0202385Y0086209D01*
X0202385Y0076209D02*
X0208385Y0076209D01*
X0208385Y0066209D02*
X0202385Y0066209D01*
X0202385Y0056209D02*
X0208385Y0056209D01*
D11*
X0194948Y0199056D03*
X0194948Y0209056D03*
X0184948Y0209056D03*
X0174948Y0209056D03*
X0174948Y0199056D03*
X0184948Y0199056D03*
X0164948Y0199056D03*
X0154948Y0199056D03*
X0154948Y0209056D03*
X0164948Y0209056D03*
X0144948Y0209056D03*
X0134948Y0209056D03*
X0124948Y0209056D03*
X0114948Y0209056D03*
X0114948Y0199056D03*
X0124948Y0199056D03*
X0144948Y0199056D03*
X0104948Y0199056D03*
X0104948Y0209056D03*
X0094948Y0209056D03*
X0084948Y0209056D03*
X0084948Y0199056D03*
X0074948Y0199056D03*
X0074948Y0209056D03*
X0054948Y0209056D03*
X0044948Y0209056D03*
X0044948Y0199056D03*
X0034948Y0209056D03*
D12*
X0091680Y0143300D02*
X0099680Y0143300D01*
X0112680Y0143300D02*
X0120680Y0143300D01*
X0131609Y0133702D02*
X0139609Y0133702D01*
X0152609Y0133702D02*
X0160609Y0133702D01*
X0161751Y0109442D02*
X0153751Y0109442D01*
X0140751Y0109442D02*
X0132751Y0109442D01*
X0109125Y0108578D02*
X0101125Y0108578D01*
X0088125Y0108578D02*
X0080125Y0108578D01*
D13*
X0053089Y0121009D03*
X0050589Y0131009D03*
X0050589Y0111009D03*
X0015841Y0121213D03*
X0013341Y0111213D03*
X0013341Y0131213D03*
D14*
X0180574Y0132385D02*
X0180574Y0125885D01*
X0180574Y0112385D02*
X0180574Y0105885D01*
D15*
X0161349Y0027095D02*
X0161349Y0021946D01*
X0151349Y0021946D02*
X0151349Y0027095D01*
X0141349Y0027095D02*
X0141349Y0021946D01*
X0131349Y0021946D02*
X0131349Y0027095D01*
D16*
X0042570Y0028949D02*
X0042570Y0021549D01*
X0052570Y0021549D02*
X0052570Y0028949D01*
X0062570Y0028949D02*
X0062570Y0021549D01*
X0072570Y0021549D02*
X0072570Y0028949D01*
X0058175Y0074269D02*
X0050775Y0074269D01*
X0065775Y0092450D02*
X0073175Y0092450D01*
X0033175Y0092450D02*
X0025775Y0092450D01*
X0018175Y0074269D02*
X0010775Y0074269D01*
X0029275Y0144725D02*
X0036675Y0144725D01*
X0050685Y0168194D02*
X0058085Y0168194D01*
X0069275Y0144725D02*
X0076675Y0144725D01*
X0112267Y0168005D02*
X0119667Y0168005D01*
X0152267Y0168005D02*
X0159667Y0168005D01*
X0018085Y0168194D02*
X0010685Y0168194D01*
D17*
X0082219Y0166070D02*
X0082219Y0171270D01*
X0092219Y0171270D02*
X0092219Y0166070D01*
D18*
X0080680Y0154300D03*
X0074680Y0183300D03*
X0006680Y0187300D03*
X0189555Y0040425D03*
X0199680Y0113300D03*
M02*
