%
M48
M72
T01C0.03150
T02C0.03200
T03C0.03543
T04C0.04000
%
T01
X131349Y24520
X141349Y24520
X151349Y24520
X161349Y24520
X189555Y40425
X180574Y109135
X180574Y129135
X199680Y113300
X80680Y154300
X74680Y183300
X6680Y187300
T02
X13341Y131213
X15841Y121213
X13341Y111213
X50589Y111009
X53089Y121009
X50589Y131009
X82219Y168670
X92219Y168670
T03
X115967Y168005
X155967Y168005
X72975Y144725
X54385Y168194
X32975Y144725
X14385Y168194
X29475Y92450
X14475Y74269
X54475Y74269
X69475Y92450
T04
X42570Y25249
X52570Y25249
X62570Y25249
X72570Y25249
X84125Y108578
X105125Y108578
X136751Y109442
X157751Y109442
X156609Y133702
X135609Y133702
X116680Y143300
X95680Y143300
X94948Y199056
X104948Y199056
X114948Y199056
X124948Y199056
X134948Y199056
X144948Y199056
X154948Y199056
X164948Y199056
X174948Y199056
X184948Y199056
X194948Y199056
X204948Y199056
X204948Y209056
X194948Y209056
X184948Y209056
X174948Y209056
X164948Y209056
X154948Y209056
X144948Y209056
X134948Y209056
X124948Y209056
X114948Y209056
X104948Y209056
X94948Y209056
X84948Y209056
X84948Y199056
X74948Y199056
X64948Y199056
X64948Y209056
X74948Y209056
X54948Y209056
X44948Y209056
X44948Y199056
X54948Y199056
X34948Y199056
X24948Y199056
X24948Y209056
X34948Y209056
X14948Y209056
X14948Y199056
X205385Y96209
X205385Y86209
X205385Y76209
X205385Y66209
X205385Y56209
M30
