G75*
%MOIN*%
%OFA0B0*%
%FSLAX25Y25*%
%IPPOS*%
%LPD*%
%AMOC8*
5,1,8,0,0,1.08239X$1,22.5*
%
%ADD10C,0.06000*%
%ADD11OC8,0.06000*%
%ADD12C,0.08000*%
%ADD13C,0.07400*%
%ADD14C,0.06500*%
%ADD15C,0.05150*%
%ADD16C,0.07400*%
%ADD17C,0.05200*%
%ADD18OC8,0.06600*%
%ADD19C,0.01600*%
%ADD20C,0.00600*%
D10*
X0014948Y0193056D02*
X0014948Y0199056D01*
X0024948Y0199056D02*
X0024948Y0193056D01*
X0034948Y0193056D02*
X0034948Y0199056D01*
X0024948Y0209056D02*
X0024948Y0215056D01*
X0014948Y0215056D02*
X0014948Y0209056D01*
X0054948Y0199056D02*
X0054948Y0193056D01*
X0064948Y0193056D02*
X0064948Y0199056D01*
X0064948Y0209056D02*
X0064948Y0215056D01*
X0094948Y0199056D02*
X0094948Y0193056D01*
X0134948Y0193056D02*
X0134948Y0199056D01*
X0204948Y0199056D02*
X0204948Y0193056D01*
X0204948Y0209056D02*
X0204948Y0215056D01*
X0202385Y0096209D02*
X0208385Y0096209D01*
X0208385Y0086209D02*
X0202385Y0086209D01*
X0202385Y0076209D02*
X0208385Y0076209D01*
X0208385Y0066209D02*
X0202385Y0066209D01*
X0202385Y0056209D02*
X0208385Y0056209D01*
D11*
X0194948Y0199056D03*
X0194948Y0209056D03*
X0184948Y0209056D03*
X0174948Y0209056D03*
X0174948Y0199056D03*
X0184948Y0199056D03*
X0164948Y0199056D03*
X0154948Y0199056D03*
X0154948Y0209056D03*
X0164948Y0209056D03*
X0144948Y0209056D03*
X0134948Y0209056D03*
X0124948Y0209056D03*
X0114948Y0209056D03*
X0114948Y0199056D03*
X0124948Y0199056D03*
X0144948Y0199056D03*
X0104948Y0199056D03*
X0104948Y0209056D03*
X0094948Y0209056D03*
X0084948Y0209056D03*
X0084948Y0199056D03*
X0074948Y0199056D03*
X0074948Y0209056D03*
X0054948Y0209056D03*
X0044948Y0209056D03*
X0044948Y0199056D03*
X0034948Y0209056D03*
D12*
X0091680Y0143300D02*
X0099680Y0143300D01*
X0112680Y0143300D02*
X0120680Y0143300D01*
X0131609Y0133702D02*
X0139609Y0133702D01*
X0152609Y0133702D02*
X0160609Y0133702D01*
X0161751Y0109442D02*
X0153751Y0109442D01*
X0140751Y0109442D02*
X0132751Y0109442D01*
X0109125Y0108578D02*
X0101125Y0108578D01*
X0088125Y0108578D02*
X0080125Y0108578D01*
D13*
X0053089Y0121009D03*
X0050589Y0131009D03*
X0050589Y0111009D03*
X0015841Y0121213D03*
X0013341Y0111213D03*
X0013341Y0131213D03*
D14*
X0180574Y0132385D02*
X0180574Y0125885D01*
X0180574Y0112385D02*
X0180574Y0105885D01*
D15*
X0161349Y0027095D02*
X0161349Y0021946D01*
X0151349Y0021946D02*
X0151349Y0027095D01*
X0141349Y0027095D02*
X0141349Y0021946D01*
X0131349Y0021946D02*
X0131349Y0027095D01*
D16*
X0072570Y0028949D02*
X0072570Y0021549D01*
X0062570Y0021549D02*
X0062570Y0028949D01*
X0052570Y0028949D02*
X0052570Y0021549D01*
X0042570Y0021549D02*
X0042570Y0028949D01*
X0050775Y0074269D02*
X0058175Y0074269D01*
X0065775Y0092450D02*
X0073175Y0092450D01*
X0033175Y0092450D02*
X0025775Y0092450D01*
X0018175Y0074269D02*
X0010775Y0074269D01*
X0029275Y0144725D02*
X0036675Y0144725D01*
X0050685Y0168194D02*
X0058085Y0168194D01*
X0069275Y0144725D02*
X0076675Y0144725D01*
X0112267Y0168005D02*
X0119667Y0168005D01*
X0152267Y0168005D02*
X0159667Y0168005D01*
X0018085Y0168194D02*
X0010685Y0168194D01*
D17*
X0082219Y0166070D02*
X0082219Y0171270D01*
X0092219Y0171270D02*
X0092219Y0166070D01*
D18*
X0080680Y0154300D03*
X0074680Y0183300D03*
X0006680Y0187300D03*
X0189555Y0040425D03*
X0199680Y0113300D03*
D19*
X0195515Y0109135D01*
X0180574Y0109135D01*
X0184180Y0102550D02*
X0182305Y0100675D01*
X0157930Y0100675D01*
X0157930Y0109425D01*
X0157751Y0109442D01*
X0147930Y0118175D02*
X0156680Y0126925D01*
X0156680Y0133175D01*
X0156609Y0133702D01*
X0147930Y0118175D02*
X0147930Y0098175D01*
X0202930Y0098175D01*
X0204805Y0096300D01*
X0205385Y0096209D01*
X0208555Y0102550D02*
X0184180Y0102550D01*
X0204805Y0086300D02*
X0205385Y0086209D01*
X0204805Y0086300D02*
X0143555Y0086300D01*
X0143555Y0090675D01*
X0125430Y0108800D01*
X0125430Y0140050D01*
X0126680Y0141300D01*
X0126680Y0145675D01*
X0111055Y0161300D01*
X0063555Y0161300D01*
X0063555Y0170675D01*
X0060430Y0173800D01*
X0023555Y0173800D01*
X0023555Y0138175D01*
X0050430Y0111300D01*
X0050589Y0111009D01*
X0049180Y0111925D01*
X0029805Y0092550D01*
X0029475Y0092450D01*
X0029805Y0091925D01*
X0029805Y0038175D01*
X0042305Y0025675D01*
X0042570Y0025249D01*
X0052570Y0025249D02*
X0052930Y0025050D01*
X0052930Y0015675D01*
X0040430Y0015675D01*
X0027305Y0028800D01*
X0027305Y0061300D01*
X0014805Y0073800D01*
X0014475Y0074269D01*
X0014180Y0074425D01*
X0014180Y0110050D01*
X0013555Y0110675D01*
X0013341Y0111213D01*
X0015841Y0121213D02*
X0016055Y0121300D01*
X0016055Y0126300D01*
X0019180Y0129425D01*
X0019180Y0133175D01*
X0014180Y0138175D01*
X0014180Y0168175D01*
X0014385Y0168194D01*
X0004680Y0176300D02*
X0006680Y0178300D01*
X0006680Y0187300D01*
X0004680Y0176300D02*
X0004680Y0143925D01*
X0013555Y0135050D01*
X0013555Y0131300D01*
X0013341Y0131213D01*
X0032975Y0144725D02*
X0033555Y0144425D01*
X0042305Y0135675D01*
X0050430Y0135675D01*
X0050430Y0131300D01*
X0050589Y0131009D01*
X0050430Y0130675D01*
X0050430Y0128175D01*
X0076680Y0128175D01*
X0094180Y0110675D01*
X0094180Y0105675D01*
X0161055Y0038800D01*
X0161055Y0025050D01*
X0161349Y0024520D01*
X0166055Y0020675D02*
X0166055Y0028800D01*
X0163555Y0031300D01*
X0163555Y0062550D01*
X0087930Y0138175D01*
X0054180Y0138175D01*
X0054180Y0168175D01*
X0054385Y0168194D01*
X0074680Y0176209D02*
X0082219Y0168670D01*
X0092219Y0168670D02*
X0115302Y0168670D01*
X0115967Y0168005D01*
X0105680Y0154300D02*
X0116680Y0143300D01*
X0105680Y0154300D02*
X0080680Y0154300D01*
X0074680Y0176209D02*
X0074680Y0183300D01*
X0024948Y0199056D02*
X0024805Y0198800D01*
X0053089Y0121009D02*
X0053555Y0120675D01*
X0061055Y0113175D01*
X0084180Y0113175D01*
X0084180Y0108800D01*
X0084125Y0108578D01*
X0084180Y0108175D01*
X0084180Y0101925D01*
X0141055Y0045050D01*
X0141055Y0025050D01*
X0141349Y0024520D01*
X0151349Y0024520D02*
X0151680Y0024425D01*
X0157930Y0018175D01*
X0159180Y0018175D01*
X0159805Y0017550D01*
X0162930Y0017550D01*
X0166055Y0020675D01*
X0164180Y0015050D02*
X0131680Y0015050D01*
X0131680Y0023800D01*
X0131349Y0024520D01*
X0131055Y0024425D01*
X0077930Y0024425D01*
X0077930Y0018800D01*
X0074805Y0015675D01*
X0062930Y0015675D01*
X0062930Y0025050D01*
X0062570Y0025249D01*
X0072305Y0025675D02*
X0072570Y0025249D01*
X0072305Y0025675D02*
X0072305Y0082550D01*
X0069180Y0085675D01*
X0069180Y0091925D01*
X0069475Y0092450D01*
X0052930Y0015675D02*
X0052930Y0012550D01*
X0171680Y0012550D01*
X0213555Y0054425D01*
X0213555Y0061300D01*
X0200430Y0061300D01*
X0197305Y0064425D01*
X0197305Y0068175D01*
X0204805Y0075675D01*
X0205385Y0076209D01*
X0207305Y0070050D02*
X0213555Y0070050D01*
X0213555Y0097550D01*
X0208555Y0102550D01*
X0207305Y0070050D02*
X0205430Y0068175D01*
X0205430Y0066300D01*
X0205385Y0066209D01*
X0205385Y0056209D02*
X0204805Y0055675D01*
X0189555Y0040425D01*
X0188055Y0038925D01*
X0164180Y0015050D01*
D20*
X0004380Y0004000D02*
X0004380Y0072984D01*
X0005350Y0070643D01*
X0007150Y0068843D01*
X0009502Y0067869D01*
X0015787Y0067869D01*
X0023805Y0059850D01*
X0023805Y0028104D01*
X0024338Y0026817D01*
X0037463Y0013692D01*
X0038447Y0012708D01*
X0039734Y0012175D01*
X0049430Y0012175D01*
X0049430Y0011854D01*
X0049963Y0010567D01*
X0050947Y0009583D01*
X0052234Y0009050D01*
X0172376Y0009050D01*
X0173663Y0009583D01*
X0174647Y0010567D01*
X0215515Y0051436D01*
X0215515Y0004000D01*
X0004380Y0004000D01*
X0004380Y0004293D02*
X0215515Y0004293D01*
X0215515Y0004891D02*
X0004380Y0004891D01*
X0004380Y0005490D02*
X0215515Y0005490D01*
X0215515Y0006088D02*
X0004380Y0006088D01*
X0004380Y0006687D02*
X0215515Y0006687D01*
X0215515Y0007285D02*
X0004380Y0007285D01*
X0004380Y0007884D02*
X0215515Y0007884D01*
X0215515Y0008482D02*
X0004380Y0008482D01*
X0004380Y0009081D02*
X0052160Y0009081D01*
X0050851Y0009679D02*
X0004380Y0009679D01*
X0004380Y0010278D02*
X0050253Y0010278D01*
X0049835Y0010876D02*
X0004380Y0010876D01*
X0004380Y0011475D02*
X0049587Y0011475D01*
X0049430Y0012073D02*
X0004380Y0012073D01*
X0004380Y0012672D02*
X0038535Y0012672D01*
X0037885Y0013270D02*
X0004380Y0013270D01*
X0004380Y0013869D02*
X0037287Y0013869D01*
X0036688Y0014467D02*
X0004380Y0014467D01*
X0004380Y0015066D02*
X0036089Y0015066D01*
X0035491Y0015664D02*
X0004380Y0015664D01*
X0004380Y0016263D02*
X0034892Y0016263D01*
X0034294Y0016861D02*
X0004380Y0016861D01*
X0004380Y0017460D02*
X0033695Y0017460D01*
X0033097Y0018058D02*
X0004380Y0018058D01*
X0004380Y0018657D02*
X0032498Y0018657D01*
X0031900Y0019255D02*
X0004380Y0019255D01*
X0004380Y0019854D02*
X0031301Y0019854D01*
X0030703Y0020452D02*
X0004380Y0020452D01*
X0004380Y0021051D02*
X0030104Y0021051D01*
X0029506Y0021649D02*
X0004380Y0021649D01*
X0004380Y0022248D02*
X0028907Y0022248D01*
X0028309Y0022846D02*
X0004380Y0022846D01*
X0004380Y0023445D02*
X0027710Y0023445D01*
X0027112Y0024043D02*
X0004380Y0024043D01*
X0004380Y0024642D02*
X0026513Y0024642D01*
X0025915Y0025240D02*
X0004380Y0025240D01*
X0004380Y0025839D02*
X0025316Y0025839D01*
X0024718Y0026437D02*
X0004380Y0026437D01*
X0004380Y0027036D02*
X0024247Y0027036D01*
X0023999Y0027634D02*
X0004380Y0027634D01*
X0004380Y0028233D02*
X0023805Y0028233D01*
X0023805Y0028832D02*
X0004380Y0028832D01*
X0004380Y0029430D02*
X0023805Y0029430D01*
X0023805Y0030029D02*
X0004380Y0030029D01*
X0004380Y0030627D02*
X0023805Y0030627D01*
X0023805Y0031226D02*
X0004380Y0031226D01*
X0004380Y0031824D02*
X0023805Y0031824D01*
X0023805Y0032423D02*
X0004380Y0032423D01*
X0004380Y0033021D02*
X0023805Y0033021D01*
X0023805Y0033620D02*
X0004380Y0033620D01*
X0004380Y0034218D02*
X0023805Y0034218D01*
X0023805Y0034817D02*
X0004380Y0034817D01*
X0004380Y0035415D02*
X0023805Y0035415D01*
X0023805Y0036014D02*
X0004380Y0036014D01*
X0004380Y0036612D02*
X0023805Y0036612D01*
X0023805Y0037211D02*
X0004380Y0037211D01*
X0004380Y0037809D02*
X0023805Y0037809D01*
X0023805Y0038408D02*
X0004380Y0038408D01*
X0004380Y0039006D02*
X0023805Y0039006D01*
X0023805Y0039605D02*
X0004380Y0039605D01*
X0004380Y0040203D02*
X0023805Y0040203D01*
X0023805Y0040802D02*
X0004380Y0040802D01*
X0004380Y0041400D02*
X0023805Y0041400D01*
X0023805Y0041999D02*
X0004380Y0041999D01*
X0004380Y0042597D02*
X0023805Y0042597D01*
X0023805Y0043196D02*
X0004380Y0043196D01*
X0004380Y0043794D02*
X0023805Y0043794D01*
X0023805Y0044393D02*
X0004380Y0044393D01*
X0004380Y0044991D02*
X0023805Y0044991D01*
X0023805Y0045590D02*
X0004380Y0045590D01*
X0004380Y0046188D02*
X0023805Y0046188D01*
X0023805Y0046787D02*
X0004380Y0046787D01*
X0004380Y0047385D02*
X0023805Y0047385D01*
X0023805Y0047984D02*
X0004380Y0047984D01*
X0004380Y0048582D02*
X0023805Y0048582D01*
X0023805Y0049181D02*
X0004380Y0049181D01*
X0004380Y0049779D02*
X0023805Y0049779D01*
X0023805Y0050378D02*
X0004380Y0050378D01*
X0004380Y0050976D02*
X0023805Y0050976D01*
X0023805Y0051575D02*
X0004380Y0051575D01*
X0004380Y0052173D02*
X0023805Y0052173D01*
X0023805Y0052772D02*
X0004380Y0052772D01*
X0004380Y0053370D02*
X0023805Y0053370D01*
X0023805Y0053969D02*
X0004380Y0053969D01*
X0004380Y0054568D02*
X0023805Y0054568D01*
X0023805Y0055166D02*
X0004380Y0055166D01*
X0004380Y0055765D02*
X0023805Y0055765D01*
X0023805Y0056363D02*
X0004380Y0056363D01*
X0004380Y0056962D02*
X0023805Y0056962D01*
X0023805Y0057560D02*
X0004380Y0057560D01*
X0004380Y0058159D02*
X0023805Y0058159D01*
X0023805Y0058757D02*
X0004380Y0058757D01*
X0004380Y0059356D02*
X0023805Y0059356D01*
X0023701Y0059954D02*
X0004380Y0059954D01*
X0004380Y0060553D02*
X0023103Y0060553D01*
X0022504Y0061151D02*
X0004380Y0061151D01*
X0004380Y0061750D02*
X0021906Y0061750D01*
X0021307Y0062348D02*
X0004380Y0062348D01*
X0004380Y0062947D02*
X0020709Y0062947D01*
X0020110Y0063545D02*
X0004380Y0063545D01*
X0004380Y0064144D02*
X0019512Y0064144D01*
X0018913Y0064742D02*
X0004380Y0064742D01*
X0004380Y0065341D02*
X0018315Y0065341D01*
X0017716Y0065939D02*
X0004380Y0065939D01*
X0004380Y0066538D02*
X0017118Y0066538D01*
X0016519Y0067136D02*
X0004380Y0067136D01*
X0004380Y0067735D02*
X0015920Y0067735D01*
X0023256Y0070298D02*
X0023601Y0070643D01*
X0024575Y0072995D01*
X0024575Y0075542D01*
X0023601Y0077894D01*
X0021801Y0079694D01*
X0019448Y0080668D01*
X0017680Y0080668D01*
X0017680Y0106501D01*
X0018767Y0107588D01*
X0019741Y0109940D01*
X0019741Y0112486D01*
X0018767Y0114839D01*
X0018301Y0115305D01*
X0019467Y0115788D01*
X0021267Y0117588D01*
X0022241Y0119940D01*
X0022241Y0122486D01*
X0021267Y0124839D01*
X0020405Y0125701D01*
X0021163Y0126458D01*
X0022147Y0127442D01*
X0022680Y0128729D01*
X0022680Y0133871D01*
X0022518Y0134262D01*
X0044280Y0112500D01*
X0044189Y0112282D01*
X0044189Y0111884D01*
X0031155Y0098850D01*
X0024502Y0098850D01*
X0022150Y0097875D01*
X0020350Y0096075D01*
X0019375Y0093723D01*
X0019375Y0091177D01*
X0020350Y0088824D01*
X0022150Y0087024D01*
X0024502Y0086050D01*
X0026305Y0086050D01*
X0026305Y0067250D01*
X0023256Y0070298D01*
X0023426Y0070129D02*
X0026305Y0070129D01*
X0026305Y0070727D02*
X0023636Y0070727D01*
X0023884Y0071326D02*
X0026305Y0071326D01*
X0026305Y0071924D02*
X0024132Y0071924D01*
X0024379Y0072523D02*
X0026305Y0072523D01*
X0026305Y0073121D02*
X0024575Y0073121D01*
X0024575Y0073720D02*
X0026305Y0073720D01*
X0026305Y0074318D02*
X0024575Y0074318D01*
X0024575Y0074917D02*
X0026305Y0074917D01*
X0026305Y0075515D02*
X0024575Y0075515D01*
X0024338Y0076114D02*
X0026305Y0076114D01*
X0026305Y0076712D02*
X0024090Y0076712D01*
X0023842Y0077311D02*
X0026305Y0077311D01*
X0026305Y0077909D02*
X0023585Y0077909D01*
X0022987Y0078508D02*
X0026305Y0078508D01*
X0026305Y0079106D02*
X0022388Y0079106D01*
X0021774Y0079705D02*
X0026305Y0079705D01*
X0026305Y0080303D02*
X0020330Y0080303D01*
X0017680Y0080902D02*
X0026305Y0080902D01*
X0026305Y0081501D02*
X0017680Y0081501D01*
X0017680Y0082099D02*
X0026305Y0082099D01*
X0026305Y0082698D02*
X0017680Y0082698D01*
X0017680Y0083296D02*
X0026305Y0083296D01*
X0026305Y0083895D02*
X0017680Y0083895D01*
X0017680Y0084493D02*
X0026305Y0084493D01*
X0026305Y0085092D02*
X0017680Y0085092D01*
X0017680Y0085690D02*
X0026305Y0085690D01*
X0023925Y0086289D02*
X0017680Y0086289D01*
X0017680Y0086887D02*
X0022480Y0086887D01*
X0021688Y0087486D02*
X0017680Y0087486D01*
X0017680Y0088084D02*
X0021090Y0088084D01*
X0020491Y0088683D02*
X0017680Y0088683D01*
X0017680Y0089281D02*
X0020160Y0089281D01*
X0019912Y0089880D02*
X0017680Y0089880D01*
X0017680Y0090478D02*
X0019665Y0090478D01*
X0019417Y0091077D02*
X0017680Y0091077D01*
X0017680Y0091675D02*
X0019375Y0091675D01*
X0019375Y0092274D02*
X0017680Y0092274D01*
X0017680Y0092872D02*
X0019375Y0092872D01*
X0019375Y0093471D02*
X0017680Y0093471D01*
X0017680Y0094069D02*
X0019519Y0094069D01*
X0019767Y0094668D02*
X0017680Y0094668D01*
X0017680Y0095266D02*
X0020015Y0095266D01*
X0020263Y0095865D02*
X0017680Y0095865D01*
X0017680Y0096463D02*
X0020738Y0096463D01*
X0021337Y0097062D02*
X0017680Y0097062D01*
X0017680Y0097660D02*
X0021935Y0097660D01*
X0023076Y0098259D02*
X0017680Y0098259D01*
X0017680Y0098857D02*
X0031163Y0098857D01*
X0031761Y0099456D02*
X0017680Y0099456D01*
X0017680Y0100054D02*
X0032360Y0100054D01*
X0032958Y0100653D02*
X0017680Y0100653D01*
X0017680Y0101251D02*
X0033557Y0101251D01*
X0034155Y0101850D02*
X0017680Y0101850D01*
X0017680Y0102448D02*
X0034754Y0102448D01*
X0035352Y0103047D02*
X0017680Y0103047D01*
X0017680Y0103645D02*
X0035951Y0103645D01*
X0036549Y0104244D02*
X0017680Y0104244D01*
X0017680Y0104842D02*
X0037148Y0104842D01*
X0037746Y0105441D02*
X0017680Y0105441D01*
X0017680Y0106039D02*
X0038345Y0106039D01*
X0038943Y0106638D02*
X0017817Y0106638D01*
X0018416Y0107237D02*
X0039542Y0107237D01*
X0040140Y0107835D02*
X0018869Y0107835D01*
X0019117Y0108434D02*
X0040739Y0108434D01*
X0041337Y0109032D02*
X0019365Y0109032D01*
X0019613Y0109631D02*
X0041936Y0109631D01*
X0042534Y0110229D02*
X0019741Y0110229D01*
X0019741Y0110828D02*
X0043133Y0110828D01*
X0043731Y0111426D02*
X0019741Y0111426D01*
X0019741Y0112025D02*
X0044189Y0112025D01*
X0044157Y0112623D02*
X0019685Y0112623D01*
X0019437Y0113222D02*
X0043559Y0113222D01*
X0042960Y0113820D02*
X0019189Y0113820D01*
X0018941Y0114419D02*
X0042362Y0114419D01*
X0041763Y0115017D02*
X0018589Y0115017D01*
X0019051Y0115616D02*
X0041165Y0115616D01*
X0040566Y0116214D02*
X0019893Y0116214D01*
X0020492Y0116813D02*
X0039968Y0116813D01*
X0039369Y0117411D02*
X0021090Y0117411D01*
X0021442Y0118010D02*
X0038771Y0118010D01*
X0038172Y0118608D02*
X0021690Y0118608D01*
X0021938Y0119207D02*
X0037574Y0119207D01*
X0036975Y0119805D02*
X0022185Y0119805D01*
X0022241Y0120404D02*
X0036376Y0120404D01*
X0035778Y0121002D02*
X0022241Y0121002D01*
X0022241Y0121601D02*
X0035179Y0121601D01*
X0034581Y0122199D02*
X0022241Y0122199D01*
X0022112Y0122798D02*
X0033982Y0122798D01*
X0033384Y0123396D02*
X0021865Y0123396D01*
X0021617Y0123995D02*
X0032785Y0123995D01*
X0032187Y0124593D02*
X0021369Y0124593D01*
X0020914Y0125192D02*
X0031588Y0125192D01*
X0030990Y0125790D02*
X0020495Y0125790D01*
X0021094Y0126389D02*
X0030391Y0126389D01*
X0029793Y0126987D02*
X0021692Y0126987D01*
X0022207Y0127586D02*
X0029194Y0127586D01*
X0028596Y0128184D02*
X0022454Y0128184D01*
X0022680Y0128783D02*
X0027997Y0128783D01*
X0027399Y0129381D02*
X0022680Y0129381D01*
X0022680Y0129980D02*
X0026800Y0129980D01*
X0026202Y0130578D02*
X0022680Y0130578D01*
X0022680Y0131177D02*
X0025603Y0131177D01*
X0025005Y0131775D02*
X0022680Y0131775D01*
X0022680Y0132374D02*
X0024406Y0132374D01*
X0023808Y0132972D02*
X0022680Y0132972D01*
X0022680Y0133571D02*
X0023209Y0133571D01*
X0022611Y0134170D02*
X0022556Y0134170D01*
X0020217Y0137088D02*
X0017680Y0139625D01*
X0017680Y0161794D01*
X0019358Y0161794D01*
X0020055Y0162083D01*
X0020055Y0137479D01*
X0020217Y0137088D01*
X0020186Y0137162D02*
X0020143Y0137162D01*
X0020055Y0137761D02*
X0019544Y0137761D01*
X0020055Y0138359D02*
X0018946Y0138359D01*
X0018347Y0138958D02*
X0020055Y0138958D01*
X0020055Y0139556D02*
X0017749Y0139556D01*
X0017680Y0140155D02*
X0020055Y0140155D01*
X0020055Y0140753D02*
X0017680Y0140753D01*
X0017680Y0141352D02*
X0020055Y0141352D01*
X0020055Y0141950D02*
X0017680Y0141950D01*
X0017680Y0142549D02*
X0020055Y0142549D01*
X0020055Y0143147D02*
X0017680Y0143147D01*
X0017680Y0143746D02*
X0020055Y0143746D01*
X0020055Y0144344D02*
X0017680Y0144344D01*
X0017680Y0144943D02*
X0020055Y0144943D01*
X0020055Y0145541D02*
X0017680Y0145541D01*
X0017680Y0146140D02*
X0020055Y0146140D01*
X0020055Y0146738D02*
X0017680Y0146738D01*
X0017680Y0147337D02*
X0020055Y0147337D01*
X0020055Y0147935D02*
X0017680Y0147935D01*
X0017680Y0148534D02*
X0020055Y0148534D01*
X0020055Y0149132D02*
X0017680Y0149132D01*
X0017680Y0149731D02*
X0020055Y0149731D01*
X0020055Y0150329D02*
X0017680Y0150329D01*
X0017680Y0150928D02*
X0020055Y0150928D01*
X0020055Y0151526D02*
X0017680Y0151526D01*
X0017680Y0152125D02*
X0020055Y0152125D01*
X0020055Y0152723D02*
X0017680Y0152723D01*
X0017680Y0153322D02*
X0020055Y0153322D01*
X0020055Y0153920D02*
X0017680Y0153920D01*
X0017680Y0154519D02*
X0020055Y0154519D01*
X0020055Y0155117D02*
X0017680Y0155117D01*
X0017680Y0155716D02*
X0020055Y0155716D01*
X0020055Y0156314D02*
X0017680Y0156314D01*
X0017680Y0156913D02*
X0020055Y0156913D01*
X0020055Y0157511D02*
X0017680Y0157511D01*
X0017680Y0158110D02*
X0020055Y0158110D01*
X0020055Y0158708D02*
X0017680Y0158708D01*
X0017680Y0159307D02*
X0020055Y0159307D01*
X0020055Y0159905D02*
X0017680Y0159905D01*
X0017680Y0160504D02*
X0020055Y0160504D01*
X0020055Y0161103D02*
X0017680Y0161103D01*
X0017680Y0161701D02*
X0020055Y0161701D01*
X0027055Y0161701D02*
X0050680Y0161701D01*
X0050680Y0161794D02*
X0050680Y0139175D01*
X0043755Y0139175D01*
X0041965Y0140964D01*
X0042101Y0141100D01*
X0043075Y0143452D01*
X0043075Y0145998D01*
X0042101Y0148351D01*
X0040301Y0150151D01*
X0037948Y0151125D01*
X0028002Y0151125D01*
X0027055Y0150733D01*
X0027055Y0170300D01*
X0044630Y0170300D01*
X0044285Y0169467D01*
X0044285Y0166921D01*
X0045259Y0164568D01*
X0047059Y0162768D01*
X0049412Y0161794D01*
X0050680Y0161794D01*
X0050680Y0161103D02*
X0027055Y0161103D01*
X0027055Y0160504D02*
X0050680Y0160504D01*
X0050680Y0159905D02*
X0027055Y0159905D01*
X0027055Y0159307D02*
X0050680Y0159307D01*
X0050680Y0158708D02*
X0027055Y0158708D01*
X0027055Y0158110D02*
X0050680Y0158110D01*
X0050680Y0157511D02*
X0027055Y0157511D01*
X0027055Y0156913D02*
X0050680Y0156913D01*
X0050680Y0156314D02*
X0027055Y0156314D01*
X0027055Y0155716D02*
X0050680Y0155716D01*
X0050680Y0155117D02*
X0027055Y0155117D01*
X0027055Y0154519D02*
X0050680Y0154519D01*
X0050680Y0153920D02*
X0027055Y0153920D01*
X0027055Y0153322D02*
X0050680Y0153322D01*
X0050680Y0152723D02*
X0027055Y0152723D01*
X0027055Y0152125D02*
X0050680Y0152125D01*
X0050680Y0151526D02*
X0027055Y0151526D01*
X0027055Y0150928D02*
X0027526Y0150928D01*
X0038425Y0150928D02*
X0050680Y0150928D01*
X0050680Y0150329D02*
X0039870Y0150329D01*
X0040721Y0149731D02*
X0050680Y0149731D01*
X0050680Y0149132D02*
X0041319Y0149132D01*
X0041918Y0148534D02*
X0050680Y0148534D01*
X0050680Y0147935D02*
X0042273Y0147935D01*
X0042521Y0147337D02*
X0050680Y0147337D01*
X0050680Y0146738D02*
X0042769Y0146738D01*
X0043017Y0146140D02*
X0050680Y0146140D01*
X0050680Y0145541D02*
X0043075Y0145541D01*
X0043075Y0144943D02*
X0050680Y0144943D01*
X0050680Y0144344D02*
X0043075Y0144344D01*
X0043075Y0143746D02*
X0050680Y0143746D01*
X0050680Y0143147D02*
X0042949Y0143147D01*
X0042701Y0142549D02*
X0050680Y0142549D01*
X0050680Y0141950D02*
X0042453Y0141950D01*
X0042205Y0141352D02*
X0050680Y0141352D01*
X0050680Y0140753D02*
X0042177Y0140753D01*
X0042775Y0140155D02*
X0050680Y0140155D01*
X0050680Y0139556D02*
X0043374Y0139556D01*
X0038262Y0134768D02*
X0031912Y0134768D01*
X0032510Y0134170D02*
X0038861Y0134170D01*
X0039338Y0133692D02*
X0040322Y0132708D01*
X0041609Y0132175D01*
X0044189Y0132175D01*
X0044189Y0129736D01*
X0045164Y0127383D01*
X0046964Y0125583D01*
X0048130Y0125100D01*
X0047664Y0124634D01*
X0046689Y0122282D01*
X0046689Y0119990D01*
X0028355Y0138325D01*
X0034705Y0138325D01*
X0039338Y0133692D01*
X0039459Y0133571D02*
X0033109Y0133571D01*
X0033707Y0132972D02*
X0040058Y0132972D01*
X0041128Y0132374D02*
X0034306Y0132374D01*
X0034904Y0131775D02*
X0044189Y0131775D01*
X0044189Y0131177D02*
X0035503Y0131177D01*
X0036101Y0130578D02*
X0044189Y0130578D01*
X0044189Y0129980D02*
X0036700Y0129980D01*
X0037298Y0129381D02*
X0044336Y0129381D01*
X0044584Y0128783D02*
X0037897Y0128783D01*
X0038495Y0128184D02*
X0044832Y0128184D01*
X0045080Y0127586D02*
X0039094Y0127586D01*
X0039692Y0126987D02*
X0045560Y0126987D01*
X0046158Y0126389D02*
X0040291Y0126389D01*
X0040889Y0125790D02*
X0046757Y0125790D01*
X0047908Y0125192D02*
X0041488Y0125192D01*
X0042086Y0124593D02*
X0047647Y0124593D01*
X0047399Y0123995D02*
X0042685Y0123995D01*
X0043283Y0123396D02*
X0047151Y0123396D01*
X0046903Y0122798D02*
X0043882Y0122798D01*
X0044480Y0122199D02*
X0046689Y0122199D01*
X0046689Y0121601D02*
X0045079Y0121601D01*
X0045677Y0121002D02*
X0046689Y0121002D01*
X0046689Y0120404D02*
X0046276Y0120404D01*
X0056983Y0112297D02*
X0058088Y0111192D01*
X0059072Y0110208D01*
X0060359Y0109675D01*
X0073425Y0109675D01*
X0073425Y0107245D01*
X0074445Y0104782D01*
X0076330Y0102898D01*
X0078792Y0101878D01*
X0080680Y0101878D01*
X0080680Y0101229D01*
X0081213Y0099942D01*
X0082197Y0098958D01*
X0137555Y0043600D01*
X0137555Y0030761D01*
X0136878Y0030083D01*
X0136349Y0028808D01*
X0135821Y0030083D01*
X0134337Y0031567D01*
X0132399Y0032370D01*
X0130300Y0032370D01*
X0128361Y0031567D01*
X0126878Y0030083D01*
X0126074Y0028145D01*
X0126074Y0027925D01*
X0078970Y0027925D01*
X0078970Y0030222D01*
X0077995Y0032574D01*
X0076195Y0034374D01*
X0075805Y0034536D01*
X0075805Y0083246D01*
X0075272Y0084533D01*
X0073755Y0086050D01*
X0074448Y0086050D01*
X0076801Y0087024D01*
X0078601Y0088824D01*
X0079575Y0091177D01*
X0079575Y0093723D01*
X0078601Y0096075D01*
X0076801Y0097875D01*
X0074448Y0098850D01*
X0064502Y0098850D01*
X0062150Y0097875D01*
X0060350Y0096075D01*
X0059375Y0093723D01*
X0059375Y0091177D01*
X0060350Y0088824D01*
X0062150Y0087024D01*
X0064502Y0086050D01*
X0065680Y0086050D01*
X0065680Y0084979D01*
X0066213Y0083692D01*
X0067197Y0082708D01*
X0068805Y0081100D01*
X0068805Y0034235D01*
X0067570Y0033000D01*
X0066195Y0034374D01*
X0063843Y0035349D01*
X0061297Y0035349D01*
X0058944Y0034374D01*
X0057570Y0033000D01*
X0056195Y0034374D01*
X0053843Y0035349D01*
X0051297Y0035349D01*
X0048944Y0034374D01*
X0047570Y0033000D01*
X0046195Y0034374D01*
X0043843Y0035349D01*
X0041297Y0035349D01*
X0038944Y0034374D01*
X0038750Y0034180D01*
X0033305Y0039625D01*
X0033305Y0086050D01*
X0034448Y0086050D01*
X0036801Y0087024D01*
X0038601Y0088824D01*
X0039575Y0091177D01*
X0039575Y0093723D01*
X0038601Y0096075D01*
X0038440Y0096236D01*
X0047547Y0105342D01*
X0049316Y0104609D01*
X0051862Y0104609D01*
X0054215Y0105583D01*
X0056015Y0107383D01*
X0056989Y0109736D01*
X0056989Y0112282D01*
X0056983Y0112297D01*
X0056989Y0112025D02*
X0057256Y0112025D01*
X0056989Y0111426D02*
X0057854Y0111426D01*
X0058453Y0110828D02*
X0056989Y0110828D01*
X0056989Y0110229D02*
X0059051Y0110229D01*
X0056946Y0109631D02*
X0073425Y0109631D01*
X0073425Y0109032D02*
X0056698Y0109032D01*
X0056450Y0108434D02*
X0073425Y0108434D01*
X0073425Y0107835D02*
X0056202Y0107835D01*
X0055868Y0107237D02*
X0073428Y0107237D01*
X0073676Y0106638D02*
X0055270Y0106638D01*
X0054671Y0106039D02*
X0073924Y0106039D01*
X0074172Y0105441D02*
X0053872Y0105441D01*
X0052427Y0104842D02*
X0074420Y0104842D01*
X0074983Y0104244D02*
X0046449Y0104244D01*
X0047047Y0104842D02*
X0048752Y0104842D01*
X0045850Y0103645D02*
X0075582Y0103645D01*
X0076180Y0103047D02*
X0045252Y0103047D01*
X0044653Y0102448D02*
X0077414Y0102448D01*
X0080680Y0101850D02*
X0044055Y0101850D01*
X0043456Y0101251D02*
X0080680Y0101251D01*
X0080919Y0100653D02*
X0042858Y0100653D01*
X0042259Y0100054D02*
X0081166Y0100054D01*
X0081699Y0099456D02*
X0041661Y0099456D01*
X0041062Y0098857D02*
X0082298Y0098857D01*
X0082896Y0098259D02*
X0075875Y0098259D01*
X0077016Y0097660D02*
X0083495Y0097660D01*
X0084093Y0097062D02*
X0077614Y0097062D01*
X0078213Y0096463D02*
X0084692Y0096463D01*
X0085290Y0095865D02*
X0078688Y0095865D01*
X0078936Y0095266D02*
X0085889Y0095266D01*
X0086487Y0094668D02*
X0079184Y0094668D01*
X0079432Y0094069D02*
X0087086Y0094069D01*
X0087684Y0093471D02*
X0079575Y0093471D01*
X0079575Y0092872D02*
X0088283Y0092872D01*
X0088882Y0092274D02*
X0079575Y0092274D01*
X0079575Y0091675D02*
X0089480Y0091675D01*
X0090079Y0091077D02*
X0079534Y0091077D01*
X0079286Y0090478D02*
X0090677Y0090478D01*
X0091276Y0089880D02*
X0079038Y0089880D01*
X0078790Y0089281D02*
X0091874Y0089281D01*
X0092473Y0088683D02*
X0078459Y0088683D01*
X0077861Y0088084D02*
X0093071Y0088084D01*
X0093670Y0087486D02*
X0077262Y0087486D01*
X0076470Y0086887D02*
X0094268Y0086887D01*
X0094867Y0086289D02*
X0075025Y0086289D01*
X0074115Y0085690D02*
X0095465Y0085690D01*
X0096064Y0085092D02*
X0074713Y0085092D01*
X0075289Y0084493D02*
X0096662Y0084493D01*
X0097261Y0083895D02*
X0075536Y0083895D01*
X0075784Y0083296D02*
X0097859Y0083296D01*
X0098458Y0082698D02*
X0075805Y0082698D01*
X0075805Y0082099D02*
X0099056Y0082099D01*
X0099655Y0081501D02*
X0075805Y0081501D01*
X0075805Y0080902D02*
X0100253Y0080902D01*
X0100852Y0080303D02*
X0075805Y0080303D01*
X0075805Y0079705D02*
X0101450Y0079705D01*
X0102049Y0079106D02*
X0075805Y0079106D01*
X0075805Y0078508D02*
X0102647Y0078508D01*
X0103246Y0077909D02*
X0075805Y0077909D01*
X0075805Y0077311D02*
X0103844Y0077311D01*
X0104443Y0076712D02*
X0075805Y0076712D01*
X0075805Y0076114D02*
X0105041Y0076114D01*
X0105640Y0075515D02*
X0075805Y0075515D01*
X0075805Y0074917D02*
X0106238Y0074917D01*
X0106837Y0074318D02*
X0075805Y0074318D01*
X0075805Y0073720D02*
X0107435Y0073720D01*
X0108034Y0073121D02*
X0075805Y0073121D01*
X0075805Y0072523D02*
X0108632Y0072523D01*
X0109231Y0071924D02*
X0075805Y0071924D01*
X0075805Y0071326D02*
X0109829Y0071326D01*
X0110428Y0070727D02*
X0075805Y0070727D01*
X0075805Y0070129D02*
X0111026Y0070129D01*
X0111625Y0069530D02*
X0075805Y0069530D01*
X0075805Y0068932D02*
X0112223Y0068932D01*
X0112822Y0068333D02*
X0075805Y0068333D01*
X0075805Y0067735D02*
X0113420Y0067735D01*
X0114019Y0067136D02*
X0075805Y0067136D01*
X0075805Y0066538D02*
X0114618Y0066538D01*
X0115216Y0065939D02*
X0075805Y0065939D01*
X0075805Y0065341D02*
X0115815Y0065341D01*
X0116413Y0064742D02*
X0075805Y0064742D01*
X0075805Y0064144D02*
X0117012Y0064144D01*
X0117610Y0063545D02*
X0075805Y0063545D01*
X0075805Y0062947D02*
X0118209Y0062947D01*
X0118807Y0062348D02*
X0075805Y0062348D01*
X0075805Y0061750D02*
X0119406Y0061750D01*
X0120004Y0061151D02*
X0075805Y0061151D01*
X0075805Y0060553D02*
X0120603Y0060553D01*
X0121201Y0059954D02*
X0075805Y0059954D01*
X0075805Y0059356D02*
X0121800Y0059356D01*
X0122398Y0058757D02*
X0075805Y0058757D01*
X0075805Y0058159D02*
X0122997Y0058159D01*
X0123595Y0057560D02*
X0075805Y0057560D01*
X0075805Y0056962D02*
X0124194Y0056962D01*
X0124792Y0056363D02*
X0075805Y0056363D01*
X0075805Y0055765D02*
X0125391Y0055765D01*
X0125989Y0055166D02*
X0075805Y0055166D01*
X0075805Y0054568D02*
X0126588Y0054568D01*
X0127186Y0053969D02*
X0075805Y0053969D01*
X0075805Y0053370D02*
X0127785Y0053370D01*
X0128383Y0052772D02*
X0075805Y0052772D01*
X0075805Y0052173D02*
X0128982Y0052173D01*
X0129580Y0051575D02*
X0075805Y0051575D01*
X0075805Y0050976D02*
X0130179Y0050976D01*
X0130777Y0050378D02*
X0075805Y0050378D01*
X0075805Y0049779D02*
X0131376Y0049779D01*
X0131974Y0049181D02*
X0075805Y0049181D01*
X0075805Y0048582D02*
X0132573Y0048582D01*
X0133171Y0047984D02*
X0075805Y0047984D01*
X0075805Y0047385D02*
X0133770Y0047385D01*
X0134368Y0046787D02*
X0075805Y0046787D01*
X0075805Y0046188D02*
X0134967Y0046188D01*
X0135565Y0045590D02*
X0075805Y0045590D01*
X0075805Y0044991D02*
X0136164Y0044991D01*
X0136762Y0044393D02*
X0075805Y0044393D01*
X0075805Y0043794D02*
X0137361Y0043794D01*
X0137555Y0043196D02*
X0075805Y0043196D01*
X0075805Y0042597D02*
X0137555Y0042597D01*
X0137555Y0041999D02*
X0075805Y0041999D01*
X0075805Y0041400D02*
X0137555Y0041400D01*
X0137555Y0040802D02*
X0075805Y0040802D01*
X0075805Y0040203D02*
X0137555Y0040203D01*
X0137555Y0039605D02*
X0075805Y0039605D01*
X0075805Y0039006D02*
X0137555Y0039006D01*
X0137555Y0038408D02*
X0075805Y0038408D01*
X0075805Y0037809D02*
X0137555Y0037809D01*
X0137555Y0037211D02*
X0075805Y0037211D01*
X0075805Y0036612D02*
X0137555Y0036612D01*
X0137555Y0036014D02*
X0075805Y0036014D01*
X0075805Y0035415D02*
X0137555Y0035415D01*
X0137555Y0034817D02*
X0075805Y0034817D01*
X0076351Y0034218D02*
X0137555Y0034218D01*
X0137555Y0033620D02*
X0076950Y0033620D01*
X0077548Y0033021D02*
X0137555Y0033021D01*
X0137555Y0032423D02*
X0078058Y0032423D01*
X0078306Y0031824D02*
X0128982Y0031824D01*
X0128020Y0031226D02*
X0078554Y0031226D01*
X0078802Y0030627D02*
X0127421Y0030627D01*
X0126855Y0030029D02*
X0078970Y0030029D01*
X0078970Y0029430D02*
X0126607Y0029430D01*
X0126359Y0028832D02*
X0078970Y0028832D01*
X0078970Y0028233D02*
X0126111Y0028233D01*
X0126074Y0020925D02*
X0126074Y0020896D01*
X0126878Y0018958D01*
X0128180Y0017655D01*
X0128180Y0016050D01*
X0080130Y0016050D01*
X0080897Y0016817D01*
X0081430Y0018104D01*
X0081430Y0020925D01*
X0126074Y0020925D01*
X0126258Y0020452D02*
X0081430Y0020452D01*
X0081430Y0019854D02*
X0126506Y0019854D01*
X0126754Y0019255D02*
X0081430Y0019255D01*
X0081430Y0018657D02*
X0127178Y0018657D01*
X0127777Y0018058D02*
X0081411Y0018058D01*
X0081163Y0017460D02*
X0128180Y0017460D01*
X0128180Y0016861D02*
X0080915Y0016861D01*
X0080343Y0016263D02*
X0128180Y0016263D01*
X0135413Y0018550D02*
X0135821Y0018958D01*
X0136349Y0020233D01*
X0136878Y0018958D01*
X0137285Y0018550D01*
X0135413Y0018550D01*
X0135520Y0018657D02*
X0137178Y0018657D01*
X0136754Y0019255D02*
X0135944Y0019255D01*
X0136192Y0019854D02*
X0136506Y0019854D01*
X0136340Y0028832D02*
X0136359Y0028832D01*
X0136607Y0029430D02*
X0136092Y0029430D01*
X0135844Y0030029D02*
X0136855Y0030029D01*
X0137421Y0030627D02*
X0135277Y0030627D01*
X0134679Y0031226D02*
X0137555Y0031226D01*
X0137555Y0031824D02*
X0133717Y0031824D01*
X0144555Y0031824D02*
X0148982Y0031824D01*
X0148361Y0031567D02*
X0146878Y0030083D01*
X0146349Y0028808D01*
X0145821Y0030083D01*
X0144555Y0031349D01*
X0144555Y0045746D01*
X0144022Y0047033D01*
X0089177Y0101878D01*
X0089458Y0101878D01*
X0091920Y0102898D01*
X0091964Y0102941D01*
X0092197Y0102708D01*
X0157555Y0037350D01*
X0157555Y0030761D01*
X0156878Y0030083D01*
X0156349Y0028808D01*
X0155821Y0030083D01*
X0154337Y0031567D01*
X0152399Y0032370D01*
X0150300Y0032370D01*
X0148361Y0031567D01*
X0148020Y0031226D02*
X0144679Y0031226D01*
X0145277Y0030627D02*
X0147421Y0030627D01*
X0146855Y0030029D02*
X0145844Y0030029D01*
X0146092Y0029430D02*
X0146607Y0029430D01*
X0146359Y0028832D02*
X0146340Y0028832D01*
X0144555Y0032423D02*
X0157555Y0032423D01*
X0157555Y0033021D02*
X0144555Y0033021D01*
X0144555Y0033620D02*
X0157555Y0033620D01*
X0157555Y0034218D02*
X0144555Y0034218D01*
X0144555Y0034817D02*
X0157555Y0034817D01*
X0157555Y0035415D02*
X0144555Y0035415D01*
X0144555Y0036014D02*
X0157555Y0036014D01*
X0157555Y0036612D02*
X0144555Y0036612D01*
X0144555Y0037211D02*
X0157555Y0037211D01*
X0157096Y0037809D02*
X0144555Y0037809D01*
X0144555Y0038408D02*
X0156498Y0038408D01*
X0155899Y0039006D02*
X0144555Y0039006D01*
X0144555Y0039605D02*
X0155301Y0039605D01*
X0154702Y0040203D02*
X0144555Y0040203D01*
X0144555Y0040802D02*
X0154103Y0040802D01*
X0153505Y0041400D02*
X0144555Y0041400D01*
X0144555Y0041999D02*
X0152906Y0041999D01*
X0152308Y0042597D02*
X0144555Y0042597D01*
X0144555Y0043196D02*
X0151709Y0043196D01*
X0151111Y0043794D02*
X0144555Y0043794D01*
X0144555Y0044393D02*
X0150512Y0044393D01*
X0149914Y0044991D02*
X0144555Y0044991D01*
X0144555Y0045590D02*
X0149315Y0045590D01*
X0148717Y0046188D02*
X0144372Y0046188D01*
X0144124Y0046787D02*
X0148118Y0046787D01*
X0147520Y0047385D02*
X0143669Y0047385D01*
X0143071Y0047984D02*
X0146921Y0047984D01*
X0146323Y0048582D02*
X0142472Y0048582D01*
X0141874Y0049181D02*
X0145724Y0049181D01*
X0145126Y0049779D02*
X0141275Y0049779D01*
X0140677Y0050378D02*
X0144527Y0050378D01*
X0143929Y0050976D02*
X0140078Y0050976D01*
X0139480Y0051575D02*
X0143330Y0051575D01*
X0142732Y0052173D02*
X0138881Y0052173D01*
X0138283Y0052772D02*
X0142133Y0052772D01*
X0141535Y0053370D02*
X0137684Y0053370D01*
X0137086Y0053969D02*
X0140936Y0053969D01*
X0140338Y0054568D02*
X0136487Y0054568D01*
X0135889Y0055166D02*
X0139739Y0055166D01*
X0139141Y0055765D02*
X0135290Y0055765D01*
X0134692Y0056363D02*
X0138542Y0056363D01*
X0137944Y0056962D02*
X0134093Y0056962D01*
X0133495Y0057560D02*
X0137345Y0057560D01*
X0136747Y0058159D02*
X0132896Y0058159D01*
X0132298Y0058757D02*
X0136148Y0058757D01*
X0135550Y0059356D02*
X0131699Y0059356D01*
X0131101Y0059954D02*
X0134951Y0059954D01*
X0134353Y0060553D02*
X0130502Y0060553D01*
X0129904Y0061151D02*
X0133754Y0061151D01*
X0133156Y0061750D02*
X0129305Y0061750D01*
X0128707Y0062348D02*
X0132557Y0062348D01*
X0131959Y0062947D02*
X0128108Y0062947D01*
X0127510Y0063545D02*
X0131360Y0063545D01*
X0130762Y0064144D02*
X0126911Y0064144D01*
X0126313Y0064742D02*
X0130163Y0064742D01*
X0129565Y0065341D02*
X0125714Y0065341D01*
X0125116Y0065939D02*
X0128966Y0065939D01*
X0128368Y0066538D02*
X0124517Y0066538D01*
X0123918Y0067136D02*
X0127769Y0067136D01*
X0127170Y0067735D02*
X0123320Y0067735D01*
X0122721Y0068333D02*
X0126572Y0068333D01*
X0125973Y0068932D02*
X0122123Y0068932D01*
X0121524Y0069530D02*
X0125375Y0069530D01*
X0124776Y0070129D02*
X0120926Y0070129D01*
X0120327Y0070727D02*
X0124178Y0070727D01*
X0123579Y0071326D02*
X0119729Y0071326D01*
X0119130Y0071924D02*
X0122981Y0071924D01*
X0122382Y0072523D02*
X0118532Y0072523D01*
X0117933Y0073121D02*
X0121784Y0073121D01*
X0121185Y0073720D02*
X0117335Y0073720D01*
X0116736Y0074318D02*
X0120587Y0074318D01*
X0119988Y0074917D02*
X0116138Y0074917D01*
X0115539Y0075515D02*
X0119390Y0075515D01*
X0118791Y0076114D02*
X0114941Y0076114D01*
X0114342Y0076712D02*
X0118193Y0076712D01*
X0117594Y0077311D02*
X0113744Y0077311D01*
X0113145Y0077909D02*
X0116996Y0077909D01*
X0116397Y0078508D02*
X0112547Y0078508D01*
X0111948Y0079106D02*
X0115799Y0079106D01*
X0115200Y0079705D02*
X0111350Y0079705D01*
X0110751Y0080303D02*
X0114602Y0080303D01*
X0114003Y0080902D02*
X0110153Y0080902D01*
X0109554Y0081501D02*
X0113405Y0081501D01*
X0112806Y0082099D02*
X0108956Y0082099D01*
X0108357Y0082698D02*
X0112208Y0082698D01*
X0111609Y0083296D02*
X0107759Y0083296D01*
X0107160Y0083895D02*
X0111011Y0083895D01*
X0110412Y0084493D02*
X0106562Y0084493D01*
X0105963Y0085092D02*
X0109814Y0085092D01*
X0109215Y0085690D02*
X0105365Y0085690D01*
X0104766Y0086289D02*
X0108617Y0086289D01*
X0108018Y0086887D02*
X0104168Y0086887D01*
X0103569Y0087486D02*
X0107420Y0087486D01*
X0106821Y0088084D02*
X0102971Y0088084D01*
X0102372Y0088683D02*
X0106223Y0088683D01*
X0105624Y0089281D02*
X0101774Y0089281D01*
X0101175Y0089880D02*
X0105026Y0089880D01*
X0104427Y0090478D02*
X0100577Y0090478D01*
X0099978Y0091077D02*
X0103829Y0091077D01*
X0103230Y0091675D02*
X0099380Y0091675D01*
X0098781Y0092274D02*
X0102632Y0092274D01*
X0102033Y0092872D02*
X0098182Y0092872D01*
X0097584Y0093471D02*
X0101434Y0093471D01*
X0100836Y0094069D02*
X0096985Y0094069D01*
X0096387Y0094668D02*
X0100237Y0094668D01*
X0099639Y0095266D02*
X0095788Y0095266D01*
X0095190Y0095865D02*
X0099040Y0095865D01*
X0098442Y0096463D02*
X0094591Y0096463D01*
X0093993Y0097062D02*
X0097843Y0097062D01*
X0097245Y0097660D02*
X0093394Y0097660D01*
X0092796Y0098259D02*
X0096646Y0098259D01*
X0096048Y0098857D02*
X0092197Y0098857D01*
X0091599Y0099456D02*
X0095449Y0099456D01*
X0094851Y0100054D02*
X0091000Y0100054D01*
X0090402Y0100653D02*
X0094252Y0100653D01*
X0093654Y0101251D02*
X0089803Y0101251D01*
X0089205Y0101850D02*
X0093055Y0101850D01*
X0092457Y0102448D02*
X0090836Y0102448D01*
X0102927Y0101878D02*
X0110458Y0101878D01*
X0112920Y0102898D01*
X0114805Y0104782D01*
X0115264Y0105891D01*
X0160055Y0061100D01*
X0160055Y0044750D01*
X0102927Y0101878D01*
X0102955Y0101850D02*
X0119305Y0101850D01*
X0118707Y0102448D02*
X0111836Y0102448D01*
X0113069Y0103047D02*
X0118108Y0103047D01*
X0117510Y0103645D02*
X0113668Y0103645D01*
X0114266Y0104244D02*
X0116911Y0104244D01*
X0116313Y0104842D02*
X0114830Y0104842D01*
X0115078Y0105441D02*
X0115714Y0105441D01*
X0119904Y0101251D02*
X0103553Y0101251D01*
X0104152Y0100653D02*
X0120502Y0100653D01*
X0121101Y0100054D02*
X0104750Y0100054D01*
X0105349Y0099456D02*
X0121699Y0099456D01*
X0122298Y0098857D02*
X0105947Y0098857D01*
X0106546Y0098259D02*
X0122896Y0098259D01*
X0123495Y0097660D02*
X0107144Y0097660D01*
X0107743Y0097062D02*
X0124093Y0097062D01*
X0124692Y0096463D02*
X0108341Y0096463D01*
X0108940Y0095865D02*
X0125290Y0095865D01*
X0125889Y0095266D02*
X0109538Y0095266D01*
X0110137Y0094668D02*
X0126487Y0094668D01*
X0127086Y0094069D02*
X0110735Y0094069D01*
X0111334Y0093471D02*
X0127684Y0093471D01*
X0128283Y0092872D02*
X0111932Y0092872D01*
X0112531Y0092274D02*
X0128882Y0092274D01*
X0129480Y0091675D02*
X0113130Y0091675D01*
X0113728Y0091077D02*
X0130079Y0091077D01*
X0130677Y0090478D02*
X0114327Y0090478D01*
X0114925Y0089880D02*
X0131276Y0089880D01*
X0131874Y0089281D02*
X0115524Y0089281D01*
X0116122Y0088683D02*
X0132473Y0088683D01*
X0133071Y0088084D02*
X0116721Y0088084D01*
X0117319Y0087486D02*
X0133670Y0087486D01*
X0134268Y0086887D02*
X0117918Y0086887D01*
X0118516Y0086289D02*
X0134867Y0086289D01*
X0135465Y0085690D02*
X0119115Y0085690D01*
X0119713Y0085092D02*
X0136064Y0085092D01*
X0136662Y0084493D02*
X0120312Y0084493D01*
X0120910Y0083895D02*
X0137261Y0083895D01*
X0137859Y0083296D02*
X0121509Y0083296D01*
X0122107Y0082698D02*
X0138458Y0082698D01*
X0139056Y0082099D02*
X0122706Y0082099D01*
X0123304Y0081501D02*
X0139655Y0081501D01*
X0140253Y0080902D02*
X0123903Y0080902D01*
X0124501Y0080303D02*
X0140852Y0080303D01*
X0141450Y0079705D02*
X0125100Y0079705D01*
X0125698Y0079106D02*
X0142049Y0079106D01*
X0142647Y0078508D02*
X0126297Y0078508D01*
X0126895Y0077909D02*
X0143246Y0077909D01*
X0143844Y0077311D02*
X0127494Y0077311D01*
X0128092Y0076712D02*
X0144443Y0076712D01*
X0145041Y0076114D02*
X0128691Y0076114D01*
X0129289Y0075515D02*
X0145640Y0075515D01*
X0146238Y0074917D02*
X0129888Y0074917D01*
X0130486Y0074318D02*
X0146837Y0074318D01*
X0147435Y0073720D02*
X0131085Y0073720D01*
X0131683Y0073121D02*
X0148034Y0073121D01*
X0148632Y0072523D02*
X0132282Y0072523D01*
X0132880Y0071924D02*
X0149231Y0071924D01*
X0149829Y0071326D02*
X0133479Y0071326D01*
X0134077Y0070727D02*
X0150428Y0070727D01*
X0151026Y0070129D02*
X0134676Y0070129D01*
X0135274Y0069530D02*
X0151625Y0069530D01*
X0152223Y0068932D02*
X0135873Y0068932D01*
X0136471Y0068333D02*
X0152822Y0068333D01*
X0153420Y0067735D02*
X0137070Y0067735D01*
X0137668Y0067136D02*
X0154019Y0067136D01*
X0154618Y0066538D02*
X0138267Y0066538D01*
X0138865Y0065939D02*
X0155216Y0065939D01*
X0155815Y0065341D02*
X0139464Y0065341D01*
X0140063Y0064742D02*
X0156413Y0064742D01*
X0157012Y0064144D02*
X0140661Y0064144D01*
X0141260Y0063545D02*
X0157610Y0063545D01*
X0158209Y0062947D02*
X0141858Y0062947D01*
X0142457Y0062348D02*
X0158807Y0062348D01*
X0159406Y0061750D02*
X0143055Y0061750D01*
X0143654Y0061151D02*
X0160004Y0061151D01*
X0160055Y0060553D02*
X0144252Y0060553D01*
X0144851Y0059954D02*
X0160055Y0059954D01*
X0160055Y0059356D02*
X0145449Y0059356D01*
X0146048Y0058757D02*
X0160055Y0058757D01*
X0160055Y0058159D02*
X0146646Y0058159D01*
X0147245Y0057560D02*
X0160055Y0057560D01*
X0160055Y0056962D02*
X0147843Y0056962D01*
X0148442Y0056363D02*
X0160055Y0056363D01*
X0160055Y0055765D02*
X0149040Y0055765D01*
X0149639Y0055166D02*
X0160055Y0055166D01*
X0160055Y0054568D02*
X0150237Y0054568D01*
X0150836Y0053969D02*
X0160055Y0053969D01*
X0160055Y0053370D02*
X0151434Y0053370D01*
X0152033Y0052772D02*
X0160055Y0052772D01*
X0160055Y0052173D02*
X0152631Y0052173D01*
X0153230Y0051575D02*
X0160055Y0051575D01*
X0160055Y0050976D02*
X0153828Y0050976D01*
X0154427Y0050378D02*
X0160055Y0050378D01*
X0160055Y0049779D02*
X0155025Y0049779D01*
X0155624Y0049181D02*
X0160055Y0049181D01*
X0160055Y0048582D02*
X0156222Y0048582D01*
X0156821Y0047984D02*
X0160055Y0047984D01*
X0160055Y0047385D02*
X0157419Y0047385D01*
X0158018Y0046787D02*
X0160055Y0046787D01*
X0160055Y0046188D02*
X0158616Y0046188D01*
X0159215Y0045590D02*
X0160055Y0045590D01*
X0160055Y0044991D02*
X0159813Y0044991D01*
X0167055Y0044991D02*
X0185636Y0044991D01*
X0185038Y0044393D02*
X0167055Y0044393D01*
X0167055Y0043794D02*
X0184439Y0043794D01*
X0183841Y0043196D02*
X0167055Y0043196D01*
X0167055Y0042597D02*
X0183555Y0042597D01*
X0183555Y0042910D02*
X0183555Y0039375D01*
X0169555Y0025375D01*
X0169555Y0029496D01*
X0169022Y0030783D01*
X0167055Y0032750D01*
X0167055Y0063246D01*
X0166522Y0064533D01*
X0148255Y0082800D01*
X0197733Y0082800D01*
X0199156Y0081377D01*
X0199561Y0081209D01*
X0199156Y0081042D01*
X0197552Y0079438D01*
X0196685Y0077343D01*
X0196685Y0075076D01*
X0197438Y0073258D01*
X0195322Y0071142D01*
X0194338Y0070158D01*
X0193805Y0068871D01*
X0193805Y0063729D01*
X0194338Y0062442D01*
X0197463Y0059317D01*
X0197491Y0059289D01*
X0196685Y0057343D01*
X0196685Y0055076D01*
X0197438Y0053258D01*
X0190605Y0046425D01*
X0187070Y0046425D01*
X0183555Y0042910D01*
X0183555Y0041999D02*
X0167055Y0041999D01*
X0167055Y0041400D02*
X0183555Y0041400D01*
X0183555Y0040802D02*
X0167055Y0040802D01*
X0167055Y0040203D02*
X0183555Y0040203D01*
X0183555Y0039605D02*
X0167055Y0039605D01*
X0167055Y0039006D02*
X0183186Y0039006D01*
X0182588Y0038408D02*
X0167055Y0038408D01*
X0167055Y0037809D02*
X0181989Y0037809D01*
X0181391Y0037211D02*
X0167055Y0037211D01*
X0167055Y0036612D02*
X0180792Y0036612D01*
X0180194Y0036014D02*
X0167055Y0036014D01*
X0167055Y0035415D02*
X0179595Y0035415D01*
X0178997Y0034817D02*
X0167055Y0034817D01*
X0167055Y0034218D02*
X0178398Y0034218D01*
X0177800Y0033620D02*
X0167055Y0033620D01*
X0167055Y0033021D02*
X0177201Y0033021D01*
X0176603Y0032423D02*
X0167382Y0032423D01*
X0167981Y0031824D02*
X0176004Y0031824D01*
X0175406Y0031226D02*
X0168579Y0031226D01*
X0169087Y0030627D02*
X0174807Y0030627D01*
X0174209Y0030029D02*
X0169334Y0030029D01*
X0169555Y0029430D02*
X0173610Y0029430D01*
X0173012Y0028832D02*
X0169555Y0028832D01*
X0169555Y0028233D02*
X0172413Y0028233D01*
X0171815Y0027634D02*
X0169555Y0027634D01*
X0169555Y0027036D02*
X0171216Y0027036D01*
X0170618Y0026437D02*
X0169555Y0026437D01*
X0169555Y0025839D02*
X0170019Y0025839D01*
X0175131Y0021051D02*
X0175231Y0021051D01*
X0175729Y0021649D02*
X0175830Y0021649D01*
X0176328Y0022248D02*
X0176428Y0022248D01*
X0176926Y0022846D02*
X0177027Y0022846D01*
X0177525Y0023445D02*
X0177625Y0023445D01*
X0178123Y0024043D02*
X0178224Y0024043D01*
X0178722Y0024642D02*
X0178822Y0024642D01*
X0179320Y0025240D02*
X0179421Y0025240D01*
X0179919Y0025839D02*
X0180019Y0025839D01*
X0180517Y0026437D02*
X0180618Y0026437D01*
X0181116Y0027036D02*
X0181216Y0027036D01*
X0181714Y0027634D02*
X0181815Y0027634D01*
X0182313Y0028233D02*
X0182413Y0028233D01*
X0182911Y0028832D02*
X0183012Y0028832D01*
X0183510Y0029430D02*
X0183610Y0029430D01*
X0184108Y0030029D02*
X0184209Y0030029D01*
X0184707Y0030627D02*
X0184807Y0030627D01*
X0185305Y0031226D02*
X0185406Y0031226D01*
X0185904Y0031824D02*
X0186004Y0031824D01*
X0186502Y0032423D02*
X0186603Y0032423D01*
X0187101Y0033021D02*
X0187201Y0033021D01*
X0187699Y0033620D02*
X0187800Y0033620D01*
X0188298Y0034218D02*
X0188398Y0034218D01*
X0188505Y0034425D02*
X0170130Y0016050D01*
X0170230Y0016050D01*
X0188605Y0034425D01*
X0188505Y0034425D01*
X0194108Y0030029D02*
X0215515Y0030029D01*
X0215515Y0030627D02*
X0194707Y0030627D01*
X0195305Y0031226D02*
X0215515Y0031226D01*
X0215515Y0031824D02*
X0195904Y0031824D01*
X0196502Y0032423D02*
X0215515Y0032423D01*
X0215515Y0033021D02*
X0197101Y0033021D01*
X0197699Y0033620D02*
X0215515Y0033620D01*
X0215515Y0034218D02*
X0198298Y0034218D01*
X0198896Y0034817D02*
X0215515Y0034817D01*
X0215515Y0035415D02*
X0199495Y0035415D01*
X0200093Y0036014D02*
X0215515Y0036014D01*
X0215515Y0036612D02*
X0200692Y0036612D01*
X0201290Y0037211D02*
X0215515Y0037211D01*
X0215515Y0037809D02*
X0201889Y0037809D01*
X0202487Y0038408D02*
X0215515Y0038408D01*
X0215515Y0039006D02*
X0203086Y0039006D01*
X0203684Y0039605D02*
X0215515Y0039605D01*
X0215515Y0040203D02*
X0204283Y0040203D01*
X0204881Y0040802D02*
X0215515Y0040802D01*
X0215515Y0041400D02*
X0205480Y0041400D01*
X0206078Y0041999D02*
X0215515Y0041999D01*
X0215515Y0042597D02*
X0206677Y0042597D01*
X0207276Y0043196D02*
X0215515Y0043196D01*
X0215515Y0043794D02*
X0207874Y0043794D01*
X0208473Y0044393D02*
X0215515Y0044393D01*
X0215515Y0044991D02*
X0209071Y0044991D01*
X0209670Y0045590D02*
X0215515Y0045590D01*
X0215515Y0046188D02*
X0210268Y0046188D01*
X0210867Y0046787D02*
X0215515Y0046787D01*
X0215515Y0047385D02*
X0211465Y0047385D01*
X0212064Y0047984D02*
X0215515Y0047984D01*
X0215515Y0048582D02*
X0212662Y0048582D01*
X0213261Y0049181D02*
X0215515Y0049181D01*
X0215515Y0049779D02*
X0213859Y0049779D01*
X0214458Y0050378D02*
X0215515Y0050378D01*
X0215515Y0050976D02*
X0215056Y0050976D01*
X0204690Y0050509D02*
X0195555Y0041375D01*
X0195555Y0041475D01*
X0204589Y0050509D01*
X0204690Y0050509D01*
X0204558Y0050378D02*
X0204458Y0050378D01*
X0203960Y0049779D02*
X0203859Y0049779D01*
X0203361Y0049181D02*
X0203261Y0049181D01*
X0202763Y0048582D02*
X0202662Y0048582D01*
X0202164Y0047984D02*
X0202064Y0047984D01*
X0201566Y0047385D02*
X0201465Y0047385D01*
X0200967Y0046787D02*
X0200867Y0046787D01*
X0200369Y0046188D02*
X0200268Y0046188D01*
X0199770Y0045590D02*
X0199670Y0045590D01*
X0199172Y0044991D02*
X0199071Y0044991D01*
X0198573Y0044393D02*
X0198473Y0044393D01*
X0197975Y0043794D02*
X0197874Y0043794D01*
X0197376Y0043196D02*
X0197276Y0043196D01*
X0196778Y0042597D02*
X0196677Y0042597D01*
X0196179Y0041999D02*
X0196079Y0041999D01*
X0195581Y0041400D02*
X0195555Y0041400D01*
X0190967Y0046787D02*
X0167055Y0046787D01*
X0167055Y0047385D02*
X0191566Y0047385D01*
X0192164Y0047984D02*
X0167055Y0047984D01*
X0167055Y0048582D02*
X0192763Y0048582D01*
X0193361Y0049181D02*
X0167055Y0049181D01*
X0167055Y0049779D02*
X0193960Y0049779D01*
X0194558Y0050378D02*
X0167055Y0050378D01*
X0167055Y0050976D02*
X0195157Y0050976D01*
X0195755Y0051575D02*
X0167055Y0051575D01*
X0167055Y0052173D02*
X0196354Y0052173D01*
X0196952Y0052772D02*
X0167055Y0052772D01*
X0167055Y0053370D02*
X0197391Y0053370D01*
X0197143Y0053969D02*
X0167055Y0053969D01*
X0167055Y0054568D02*
X0196895Y0054568D01*
X0196685Y0055166D02*
X0167055Y0055166D01*
X0167055Y0055765D02*
X0196685Y0055765D01*
X0196685Y0056363D02*
X0167055Y0056363D01*
X0167055Y0056962D02*
X0196685Y0056962D01*
X0196775Y0057560D02*
X0167055Y0057560D01*
X0167055Y0058159D02*
X0197022Y0058159D01*
X0197270Y0058757D02*
X0167055Y0058757D01*
X0167055Y0059356D02*
X0197425Y0059356D01*
X0196826Y0059954D02*
X0167055Y0059954D01*
X0167055Y0060553D02*
X0196228Y0060553D01*
X0195629Y0061151D02*
X0167055Y0061151D01*
X0167055Y0061750D02*
X0195031Y0061750D01*
X0194432Y0062348D02*
X0167055Y0062348D01*
X0167055Y0062947D02*
X0194129Y0062947D01*
X0193881Y0063545D02*
X0166931Y0063545D01*
X0166683Y0064144D02*
X0193805Y0064144D01*
X0193805Y0064742D02*
X0166313Y0064742D01*
X0165714Y0065341D02*
X0193805Y0065341D01*
X0193805Y0065939D02*
X0165116Y0065939D01*
X0164517Y0066538D02*
X0193805Y0066538D01*
X0193805Y0067136D02*
X0163918Y0067136D01*
X0163320Y0067735D02*
X0193805Y0067735D01*
X0193805Y0068333D02*
X0162721Y0068333D01*
X0162123Y0068932D02*
X0193830Y0068932D01*
X0194078Y0069530D02*
X0161524Y0069530D01*
X0160926Y0070129D02*
X0194326Y0070129D01*
X0194908Y0070727D02*
X0160327Y0070727D01*
X0159729Y0071326D02*
X0195506Y0071326D01*
X0196105Y0071924D02*
X0159130Y0071924D01*
X0158532Y0072523D02*
X0196703Y0072523D01*
X0197302Y0073121D02*
X0157933Y0073121D01*
X0157335Y0073720D02*
X0197246Y0073720D01*
X0196998Y0074318D02*
X0156736Y0074318D01*
X0156138Y0074917D02*
X0196750Y0074917D01*
X0196685Y0075515D02*
X0155539Y0075515D01*
X0154941Y0076114D02*
X0196685Y0076114D01*
X0196685Y0076712D02*
X0154342Y0076712D01*
X0153744Y0077311D02*
X0196685Y0077311D01*
X0196919Y0077909D02*
X0153145Y0077909D01*
X0152547Y0078508D02*
X0197167Y0078508D01*
X0197415Y0079106D02*
X0151948Y0079106D01*
X0151350Y0079705D02*
X0197819Y0079705D01*
X0198418Y0080303D02*
X0150751Y0080303D01*
X0150153Y0080902D02*
X0199016Y0080902D01*
X0199033Y0081501D02*
X0149554Y0081501D01*
X0148956Y0082099D02*
X0198434Y0082099D01*
X0197836Y0082698D02*
X0148357Y0082698D01*
X0147055Y0089800D02*
X0147055Y0091371D01*
X0146522Y0092658D01*
X0136438Y0102742D01*
X0142084Y0102742D01*
X0144430Y0103714D01*
X0144430Y0097479D01*
X0144963Y0096192D01*
X0145947Y0095208D01*
X0147234Y0094675D01*
X0196851Y0094675D01*
X0197552Y0092981D01*
X0199156Y0091377D01*
X0199561Y0091209D01*
X0199156Y0091042D01*
X0197914Y0089800D01*
X0147055Y0089800D01*
X0147055Y0089880D02*
X0197994Y0089880D01*
X0198592Y0090478D02*
X0147055Y0090478D01*
X0147055Y0091077D02*
X0199240Y0091077D01*
X0198858Y0091675D02*
X0146929Y0091675D01*
X0146681Y0092274D02*
X0198259Y0092274D01*
X0197661Y0092872D02*
X0146307Y0092872D01*
X0145709Y0093471D02*
X0197349Y0093471D01*
X0197102Y0094069D02*
X0145110Y0094069D01*
X0144512Y0094668D02*
X0196854Y0094668D01*
X0197214Y0106050D02*
X0197497Y0106167D01*
X0198630Y0107300D01*
X0202165Y0107300D01*
X0205680Y0110815D01*
X0205680Y0115785D01*
X0202165Y0119300D01*
X0197195Y0119300D01*
X0193680Y0115785D01*
X0193680Y0112635D01*
X0186524Y0112635D01*
X0186524Y0113568D01*
X0185618Y0115755D01*
X0183944Y0117429D01*
X0181757Y0118335D01*
X0179390Y0118335D01*
X0177203Y0117429D01*
X0175530Y0115755D01*
X0174624Y0113568D01*
X0174624Y0104701D01*
X0174842Y0104175D01*
X0165959Y0104175D01*
X0167431Y0105646D01*
X0168451Y0108109D01*
X0168451Y0110774D01*
X0167431Y0113237D01*
X0165546Y0115122D01*
X0163084Y0116142D01*
X0152418Y0116142D01*
X0151430Y0115732D01*
X0151430Y0116725D01*
X0158663Y0123958D01*
X0159647Y0124942D01*
X0160180Y0126229D01*
X0160180Y0127002D01*
X0161942Y0127002D01*
X0164404Y0128022D01*
X0166289Y0129906D01*
X0167309Y0132369D01*
X0167309Y0135034D01*
X0166289Y0137497D01*
X0164404Y0139382D01*
X0161942Y0140402D01*
X0151276Y0140402D01*
X0148814Y0139382D01*
X0146929Y0137497D01*
X0146109Y0135517D01*
X0145289Y0137497D01*
X0143404Y0139382D01*
X0140942Y0140402D01*
X0130276Y0140402D01*
X0130059Y0140311D01*
X0130180Y0140604D01*
X0130180Y0146371D01*
X0129647Y0147658D01*
X0115700Y0161605D01*
X0120940Y0161605D01*
X0123293Y0162579D01*
X0125093Y0164379D01*
X0126067Y0166732D01*
X0126067Y0169278D01*
X0125093Y0171630D01*
X0123293Y0173430D01*
X0120940Y0174405D01*
X0110994Y0174405D01*
X0108642Y0173430D01*
X0107382Y0172170D01*
X0097519Y0172170D01*
X0097519Y0172324D01*
X0096712Y0174272D01*
X0095222Y0175763D01*
X0093274Y0176570D01*
X0091165Y0176570D01*
X0089217Y0175763D01*
X0087726Y0174272D01*
X0087219Y0173049D01*
X0086712Y0174272D01*
X0085222Y0175763D01*
X0083274Y0176570D01*
X0081165Y0176570D01*
X0079824Y0176015D01*
X0078180Y0177659D01*
X0078180Y0178315D01*
X0080680Y0180815D01*
X0080680Y0182700D01*
X0140929Y0182700D01*
X0141280Y0183051D01*
X0141280Y0194663D01*
X0142587Y0193356D01*
X0147309Y0193356D01*
X0149948Y0195995D01*
X0152587Y0193356D01*
X0157309Y0193356D01*
X0159948Y0195995D01*
X0162587Y0193356D01*
X0167309Y0193356D01*
X0169948Y0195995D01*
X0172587Y0193356D01*
X0177309Y0193356D01*
X0179948Y0195995D01*
X0182587Y0193356D01*
X0187309Y0193356D01*
X0189948Y0195995D01*
X0192587Y0193356D01*
X0197080Y0193356D01*
X0197080Y0184051D01*
X0197431Y0183700D01*
X0215515Y0183700D01*
X0215515Y0100539D01*
X0211522Y0104533D01*
X0210538Y0105517D01*
X0209251Y0106050D01*
X0197214Y0106050D01*
X0197968Y0106638D02*
X0215515Y0106638D01*
X0215515Y0107237D02*
X0198566Y0107237D01*
X0202700Y0107835D02*
X0215515Y0107835D01*
X0215515Y0108434D02*
X0203299Y0108434D01*
X0203897Y0109032D02*
X0215515Y0109032D01*
X0215515Y0109631D02*
X0204496Y0109631D01*
X0205094Y0110229D02*
X0215515Y0110229D01*
X0215515Y0110828D02*
X0205680Y0110828D01*
X0205680Y0111426D02*
X0215515Y0111426D01*
X0215515Y0112025D02*
X0205680Y0112025D01*
X0205680Y0112623D02*
X0215515Y0112623D01*
X0215515Y0113222D02*
X0205680Y0113222D01*
X0205680Y0113820D02*
X0215515Y0113820D01*
X0215515Y0114419D02*
X0205680Y0114419D01*
X0205680Y0115017D02*
X0215515Y0115017D01*
X0215515Y0115616D02*
X0205680Y0115616D01*
X0205251Y0116214D02*
X0215515Y0116214D01*
X0215515Y0116813D02*
X0204653Y0116813D01*
X0204054Y0117411D02*
X0215515Y0117411D01*
X0215515Y0118010D02*
X0203456Y0118010D01*
X0202857Y0118608D02*
X0215515Y0118608D01*
X0215515Y0119207D02*
X0202259Y0119207D01*
X0197101Y0119207D02*
X0153911Y0119207D01*
X0153313Y0118608D02*
X0196503Y0118608D01*
X0195904Y0118010D02*
X0182542Y0118010D01*
X0183962Y0117411D02*
X0195306Y0117411D01*
X0194707Y0116813D02*
X0184560Y0116813D01*
X0185159Y0116214D02*
X0194109Y0116214D01*
X0193680Y0115616D02*
X0185676Y0115616D01*
X0185923Y0115017D02*
X0193680Y0115017D01*
X0193680Y0114419D02*
X0186171Y0114419D01*
X0186419Y0113820D02*
X0193680Y0113820D01*
X0193680Y0113222D02*
X0186524Y0113222D01*
X0183944Y0120840D02*
X0181757Y0119935D01*
X0179390Y0119935D01*
X0177203Y0120840D01*
X0175530Y0122514D01*
X0174624Y0124701D01*
X0174624Y0133568D01*
X0175530Y0135755D01*
X0177203Y0137429D01*
X0179390Y0138335D01*
X0181757Y0138335D01*
X0183944Y0137429D01*
X0185618Y0135755D01*
X0186524Y0133568D01*
X0186524Y0124701D01*
X0185618Y0122514D01*
X0183944Y0120840D01*
X0184106Y0121002D02*
X0215515Y0121002D01*
X0215515Y0120404D02*
X0182890Y0120404D01*
X0184704Y0121601D02*
X0215515Y0121601D01*
X0215515Y0122199D02*
X0185303Y0122199D01*
X0185735Y0122798D02*
X0215515Y0122798D01*
X0215515Y0123396D02*
X0185983Y0123396D01*
X0186231Y0123995D02*
X0215515Y0123995D01*
X0215515Y0124593D02*
X0186479Y0124593D01*
X0186524Y0125192D02*
X0215515Y0125192D01*
X0215515Y0125790D02*
X0186524Y0125790D01*
X0186524Y0126389D02*
X0215515Y0126389D01*
X0215515Y0126987D02*
X0186524Y0126987D01*
X0186524Y0127586D02*
X0215515Y0127586D01*
X0215515Y0128184D02*
X0186524Y0128184D01*
X0186524Y0128783D02*
X0215515Y0128783D01*
X0215515Y0129381D02*
X0186524Y0129381D01*
X0186524Y0129980D02*
X0215515Y0129980D01*
X0215515Y0130578D02*
X0186524Y0130578D01*
X0186524Y0131177D02*
X0215515Y0131177D01*
X0215515Y0131775D02*
X0186524Y0131775D01*
X0186524Y0132374D02*
X0215515Y0132374D01*
X0215515Y0132972D02*
X0186524Y0132972D01*
X0186523Y0133571D02*
X0215515Y0133571D01*
X0215515Y0134170D02*
X0186275Y0134170D01*
X0186027Y0134768D02*
X0215515Y0134768D01*
X0215515Y0135367D02*
X0185779Y0135367D01*
X0185408Y0135965D02*
X0215515Y0135965D01*
X0215515Y0136564D02*
X0184809Y0136564D01*
X0184211Y0137162D02*
X0215515Y0137162D01*
X0215515Y0137761D02*
X0183143Y0137761D01*
X0178004Y0137761D02*
X0166025Y0137761D01*
X0166428Y0137162D02*
X0176937Y0137162D01*
X0176338Y0136564D02*
X0166676Y0136564D01*
X0166924Y0135965D02*
X0175740Y0135965D01*
X0175369Y0135367D02*
X0167172Y0135367D01*
X0167309Y0134768D02*
X0175121Y0134768D01*
X0174873Y0134170D02*
X0167309Y0134170D01*
X0167309Y0133571D02*
X0174625Y0133571D01*
X0174624Y0132972D02*
X0167309Y0132972D01*
X0167309Y0132374D02*
X0174624Y0132374D01*
X0174624Y0131775D02*
X0167063Y0131775D01*
X0166815Y0131177D02*
X0174624Y0131177D01*
X0174624Y0130578D02*
X0166567Y0130578D01*
X0166320Y0129980D02*
X0174624Y0129980D01*
X0174624Y0129381D02*
X0165764Y0129381D01*
X0165166Y0128783D02*
X0174624Y0128783D01*
X0174624Y0128184D02*
X0164567Y0128184D01*
X0163352Y0127586D02*
X0174624Y0127586D01*
X0174624Y0126987D02*
X0160180Y0126987D01*
X0160180Y0126389D02*
X0174624Y0126389D01*
X0174624Y0125790D02*
X0159998Y0125790D01*
X0159750Y0125192D02*
X0174624Y0125192D01*
X0174668Y0124593D02*
X0159298Y0124593D01*
X0158700Y0123995D02*
X0174916Y0123995D01*
X0175164Y0123396D02*
X0158101Y0123396D01*
X0157503Y0122798D02*
X0175412Y0122798D01*
X0175844Y0122199D02*
X0156904Y0122199D01*
X0156306Y0121601D02*
X0176443Y0121601D01*
X0177041Y0121002D02*
X0155707Y0121002D01*
X0155108Y0120404D02*
X0178258Y0120404D01*
X0178606Y0118010D02*
X0152714Y0118010D01*
X0152116Y0117411D02*
X0177186Y0117411D01*
X0176587Y0116813D02*
X0151517Y0116813D01*
X0151430Y0116214D02*
X0175989Y0116214D01*
X0175472Y0115616D02*
X0164354Y0115616D01*
X0165651Y0115017D02*
X0175224Y0115017D01*
X0174976Y0114419D02*
X0166249Y0114419D01*
X0166848Y0113820D02*
X0174728Y0113820D01*
X0174624Y0113222D02*
X0167437Y0113222D01*
X0167685Y0112623D02*
X0174624Y0112623D01*
X0174624Y0112025D02*
X0167933Y0112025D01*
X0168181Y0111426D02*
X0174624Y0111426D01*
X0174624Y0110828D02*
X0168429Y0110828D01*
X0168451Y0110229D02*
X0174624Y0110229D01*
X0174624Y0109631D02*
X0168451Y0109631D01*
X0168451Y0109032D02*
X0174624Y0109032D01*
X0174624Y0108434D02*
X0168451Y0108434D01*
X0168337Y0107835D02*
X0174624Y0107835D01*
X0174624Y0107237D02*
X0168089Y0107237D01*
X0167842Y0106638D02*
X0174624Y0106638D01*
X0174624Y0106039D02*
X0167594Y0106039D01*
X0167225Y0105441D02*
X0174624Y0105441D01*
X0174624Y0104842D02*
X0166627Y0104842D01*
X0166028Y0104244D02*
X0174813Y0104244D01*
X0154510Y0119805D02*
X0215515Y0119805D01*
X0215515Y0106039D02*
X0209277Y0106039D01*
X0210614Y0105441D02*
X0215515Y0105441D01*
X0215515Y0104842D02*
X0211212Y0104842D01*
X0211811Y0104244D02*
X0215515Y0104244D01*
X0215515Y0103645D02*
X0212409Y0103645D01*
X0213008Y0103047D02*
X0215515Y0103047D01*
X0215515Y0102448D02*
X0213606Y0102448D01*
X0214205Y0101850D02*
X0215515Y0101850D01*
X0215515Y0101251D02*
X0214803Y0101251D01*
X0215402Y0100653D02*
X0215515Y0100653D01*
X0215515Y0067074D02*
X0215515Y0064276D01*
X0214251Y0064800D01*
X0213971Y0064800D01*
X0214085Y0065076D01*
X0214085Y0066550D01*
X0214251Y0066550D01*
X0215515Y0067074D01*
X0215515Y0066538D02*
X0214085Y0066538D01*
X0214085Y0065939D02*
X0215515Y0065939D01*
X0215515Y0065341D02*
X0214085Y0065341D01*
X0214391Y0064742D02*
X0215515Y0064742D01*
X0186833Y0046188D02*
X0167055Y0046188D01*
X0167055Y0045590D02*
X0186235Y0045590D01*
X0193510Y0029430D02*
X0215515Y0029430D01*
X0215515Y0028832D02*
X0192911Y0028832D01*
X0192313Y0028233D02*
X0215515Y0028233D01*
X0215515Y0027634D02*
X0191714Y0027634D01*
X0191116Y0027036D02*
X0215515Y0027036D01*
X0215515Y0026437D02*
X0190517Y0026437D01*
X0189919Y0025839D02*
X0215515Y0025839D01*
X0215515Y0025240D02*
X0189320Y0025240D01*
X0188722Y0024642D02*
X0215515Y0024642D01*
X0215515Y0024043D02*
X0188123Y0024043D01*
X0187525Y0023445D02*
X0215515Y0023445D01*
X0215515Y0022846D02*
X0186926Y0022846D01*
X0186328Y0022248D02*
X0215515Y0022248D01*
X0215515Y0021649D02*
X0185729Y0021649D01*
X0185131Y0021051D02*
X0215515Y0021051D01*
X0215515Y0020452D02*
X0184532Y0020452D01*
X0183934Y0019854D02*
X0215515Y0019854D01*
X0215515Y0019255D02*
X0183335Y0019255D01*
X0182737Y0018657D02*
X0215515Y0018657D01*
X0215515Y0018058D02*
X0182138Y0018058D01*
X0181540Y0017460D02*
X0215515Y0017460D01*
X0215515Y0016861D02*
X0180941Y0016861D01*
X0180343Y0016263D02*
X0215515Y0016263D01*
X0215515Y0015664D02*
X0179744Y0015664D01*
X0179145Y0015066D02*
X0215515Y0015066D01*
X0215515Y0014467D02*
X0178547Y0014467D01*
X0177948Y0013869D02*
X0215515Y0013869D01*
X0215515Y0013270D02*
X0177350Y0013270D01*
X0176751Y0012672D02*
X0215515Y0012672D01*
X0215515Y0012073D02*
X0176153Y0012073D01*
X0175554Y0011475D02*
X0215515Y0011475D01*
X0215515Y0010876D02*
X0174956Y0010876D01*
X0174357Y0010278D02*
X0215515Y0010278D01*
X0215515Y0009679D02*
X0173759Y0009679D01*
X0172450Y0009081D02*
X0215515Y0009081D01*
X0174633Y0020452D02*
X0174532Y0020452D01*
X0174034Y0019854D02*
X0173934Y0019854D01*
X0173436Y0019255D02*
X0173335Y0019255D01*
X0172837Y0018657D02*
X0172737Y0018657D01*
X0172239Y0018058D02*
X0172138Y0018058D01*
X0171640Y0017460D02*
X0171540Y0017460D01*
X0171042Y0016861D02*
X0170941Y0016861D01*
X0170443Y0016263D02*
X0170343Y0016263D01*
X0156855Y0030029D02*
X0155844Y0030029D01*
X0156092Y0029430D02*
X0156607Y0029430D01*
X0156359Y0028832D02*
X0156340Y0028832D01*
X0155277Y0030627D02*
X0157421Y0030627D01*
X0157555Y0031226D02*
X0154679Y0031226D01*
X0153717Y0031824D02*
X0157555Y0031824D01*
X0146349Y0020233D02*
X0146878Y0018958D01*
X0147285Y0018550D01*
X0145413Y0018550D01*
X0145821Y0018958D01*
X0146349Y0020233D01*
X0146192Y0019854D02*
X0146506Y0019854D01*
X0146754Y0019255D02*
X0145944Y0019255D01*
X0145520Y0018657D02*
X0147178Y0018657D01*
X0145889Y0095266D02*
X0143913Y0095266D01*
X0143315Y0095865D02*
X0145290Y0095865D01*
X0144851Y0096463D02*
X0142716Y0096463D01*
X0142118Y0097062D02*
X0144603Y0097062D01*
X0144430Y0097660D02*
X0141519Y0097660D01*
X0140921Y0098259D02*
X0144430Y0098259D01*
X0144430Y0098857D02*
X0140322Y0098857D01*
X0139724Y0099456D02*
X0144430Y0099456D01*
X0144430Y0100054D02*
X0139125Y0100054D01*
X0138527Y0100653D02*
X0144430Y0100653D01*
X0144430Y0101251D02*
X0137928Y0101251D01*
X0137330Y0101850D02*
X0144430Y0101850D01*
X0144430Y0102448D02*
X0136731Y0102448D01*
X0142820Y0103047D02*
X0144430Y0103047D01*
X0144430Y0103645D02*
X0144265Y0103645D01*
X0151430Y0103151D02*
X0151430Y0101675D01*
X0154430Y0101675D01*
X0154430Y0102742D01*
X0152418Y0102742D01*
X0151430Y0103151D01*
X0151430Y0103047D02*
X0151681Y0103047D01*
X0151430Y0102448D02*
X0154430Y0102448D01*
X0154430Y0101850D02*
X0151430Y0101850D01*
X0144430Y0115170D02*
X0142084Y0116142D01*
X0131418Y0116142D01*
X0128956Y0115122D01*
X0128930Y0115096D01*
X0128930Y0127559D01*
X0130276Y0127002D01*
X0140942Y0127002D01*
X0143404Y0128022D01*
X0145289Y0129906D01*
X0146109Y0131886D01*
X0146929Y0129906D01*
X0148814Y0128022D01*
X0151276Y0127002D01*
X0151807Y0127002D01*
X0144963Y0120158D01*
X0144430Y0118871D01*
X0144430Y0115170D01*
X0144430Y0115616D02*
X0143354Y0115616D01*
X0144430Y0116214D02*
X0128930Y0116214D01*
X0128930Y0115616D02*
X0130148Y0115616D01*
X0128930Y0116813D02*
X0144430Y0116813D01*
X0144430Y0117411D02*
X0128930Y0117411D01*
X0128930Y0118010D02*
X0144430Y0118010D01*
X0144430Y0118608D02*
X0128930Y0118608D01*
X0128930Y0119207D02*
X0144569Y0119207D01*
X0144817Y0119805D02*
X0128930Y0119805D01*
X0128930Y0120404D02*
X0145209Y0120404D01*
X0145808Y0121002D02*
X0128930Y0121002D01*
X0128930Y0121601D02*
X0146406Y0121601D01*
X0147005Y0122199D02*
X0128930Y0122199D01*
X0128930Y0122798D02*
X0147603Y0122798D01*
X0148202Y0123396D02*
X0128930Y0123396D01*
X0128930Y0123995D02*
X0148800Y0123995D01*
X0149399Y0124593D02*
X0128930Y0124593D01*
X0128930Y0125192D02*
X0149997Y0125192D01*
X0150596Y0125790D02*
X0128930Y0125790D01*
X0128930Y0126389D02*
X0151194Y0126389D01*
X0151793Y0126987D02*
X0128930Y0126987D01*
X0121930Y0126987D02*
X0104067Y0126987D01*
X0104666Y0126389D02*
X0121930Y0126389D01*
X0121930Y0125790D02*
X0105264Y0125790D01*
X0105863Y0125192D02*
X0121930Y0125192D01*
X0121930Y0124593D02*
X0106461Y0124593D01*
X0107060Y0123995D02*
X0121930Y0123995D01*
X0121930Y0123396D02*
X0107658Y0123396D01*
X0108257Y0122798D02*
X0121930Y0122798D01*
X0121930Y0122199D02*
X0108855Y0122199D01*
X0109454Y0121601D02*
X0121930Y0121601D01*
X0121930Y0121002D02*
X0110052Y0121002D01*
X0110651Y0120404D02*
X0121930Y0120404D01*
X0121930Y0119805D02*
X0111249Y0119805D01*
X0111848Y0119207D02*
X0121930Y0119207D01*
X0121930Y0118608D02*
X0112446Y0118608D01*
X0113045Y0118010D02*
X0121930Y0118010D01*
X0121930Y0117411D02*
X0113644Y0117411D01*
X0114242Y0116813D02*
X0121930Y0116813D01*
X0121930Y0116214D02*
X0114841Y0116214D01*
X0115439Y0115616D02*
X0121930Y0115616D01*
X0121930Y0115017D02*
X0116038Y0115017D01*
X0116636Y0114419D02*
X0121930Y0114419D01*
X0121930Y0113820D02*
X0117235Y0113820D01*
X0117833Y0113222D02*
X0121930Y0113222D01*
X0121930Y0112623D02*
X0118432Y0112623D01*
X0119030Y0112025D02*
X0121930Y0112025D01*
X0121930Y0111426D02*
X0119629Y0111426D01*
X0120227Y0110828D02*
X0121930Y0110828D01*
X0121930Y0110229D02*
X0120826Y0110229D01*
X0121424Y0109631D02*
X0121930Y0109631D01*
X0121930Y0109125D02*
X0094455Y0136600D01*
X0101013Y0136600D01*
X0103475Y0137620D01*
X0105360Y0139505D01*
X0106180Y0141484D01*
X0107000Y0139505D01*
X0108885Y0137620D01*
X0111347Y0136600D01*
X0121930Y0136600D01*
X0121930Y0109125D01*
X0105878Y0115278D02*
X0086480Y0134675D01*
X0055974Y0134675D01*
X0056015Y0134634D01*
X0056989Y0132282D01*
X0056989Y0131675D01*
X0077376Y0131675D01*
X0078663Y0131142D01*
X0079647Y0130158D01*
X0096438Y0113366D01*
X0097330Y0114258D01*
X0099792Y0115278D01*
X0105878Y0115278D01*
X0105540Y0115616D02*
X0094189Y0115616D01*
X0093591Y0116214D02*
X0104941Y0116214D01*
X0104343Y0116813D02*
X0092992Y0116813D01*
X0092394Y0117411D02*
X0103744Y0117411D01*
X0103146Y0118010D02*
X0091795Y0118010D01*
X0091197Y0118608D02*
X0102547Y0118608D01*
X0101949Y0119207D02*
X0090598Y0119207D01*
X0089999Y0119805D02*
X0101350Y0119805D01*
X0100751Y0120404D02*
X0089401Y0120404D01*
X0088802Y0121002D02*
X0100153Y0121002D01*
X0099554Y0121601D02*
X0088204Y0121601D01*
X0087605Y0122199D02*
X0098956Y0122199D01*
X0098357Y0122798D02*
X0087007Y0122798D01*
X0086408Y0123396D02*
X0097759Y0123396D01*
X0097160Y0123995D02*
X0085810Y0123995D01*
X0085211Y0124593D02*
X0096562Y0124593D01*
X0095963Y0125192D02*
X0084613Y0125192D01*
X0084014Y0125790D02*
X0095365Y0125790D01*
X0094766Y0126389D02*
X0083416Y0126389D01*
X0082817Y0126987D02*
X0094168Y0126987D01*
X0093569Y0127586D02*
X0082219Y0127586D01*
X0081620Y0128184D02*
X0092971Y0128184D01*
X0092372Y0128783D02*
X0081022Y0128783D01*
X0080423Y0129381D02*
X0091774Y0129381D01*
X0091175Y0129980D02*
X0079825Y0129980D01*
X0079226Y0130578D02*
X0090577Y0130578D01*
X0089978Y0131177D02*
X0078579Y0131177D01*
X0075230Y0124675D02*
X0083230Y0116675D01*
X0062505Y0116675D01*
X0059476Y0119704D01*
X0059489Y0119736D01*
X0059489Y0122282D01*
X0058515Y0124634D01*
X0058474Y0124675D01*
X0075230Y0124675D01*
X0075312Y0124593D02*
X0058532Y0124593D01*
X0058780Y0123995D02*
X0075910Y0123995D01*
X0076509Y0123396D02*
X0059028Y0123396D01*
X0059276Y0122798D02*
X0077107Y0122798D01*
X0077706Y0122199D02*
X0059489Y0122199D01*
X0059489Y0121601D02*
X0078304Y0121601D01*
X0078903Y0121002D02*
X0059489Y0121002D01*
X0059489Y0120404D02*
X0079501Y0120404D01*
X0080100Y0119805D02*
X0059489Y0119805D01*
X0059973Y0119207D02*
X0080699Y0119207D01*
X0081297Y0118608D02*
X0060572Y0118608D01*
X0061170Y0118010D02*
X0081896Y0118010D01*
X0082494Y0117411D02*
X0061769Y0117411D01*
X0062367Y0116813D02*
X0083093Y0116813D01*
X0094788Y0115017D02*
X0099164Y0115017D01*
X0097719Y0114419D02*
X0095386Y0114419D01*
X0095985Y0113820D02*
X0096892Y0113820D01*
X0103469Y0127586D02*
X0121930Y0127586D01*
X0121930Y0128184D02*
X0102870Y0128184D01*
X0102272Y0128783D02*
X0121930Y0128783D01*
X0121930Y0129381D02*
X0101673Y0129381D01*
X0101075Y0129980D02*
X0121930Y0129980D01*
X0121930Y0130578D02*
X0100476Y0130578D01*
X0099878Y0131177D02*
X0121930Y0131177D01*
X0121930Y0131775D02*
X0099279Y0131775D01*
X0098681Y0132374D02*
X0121930Y0132374D01*
X0121930Y0132972D02*
X0098082Y0132972D01*
X0097484Y0133571D02*
X0121930Y0133571D01*
X0121930Y0134170D02*
X0096885Y0134170D01*
X0096287Y0134768D02*
X0121930Y0134768D01*
X0121930Y0135367D02*
X0095688Y0135367D01*
X0095090Y0135965D02*
X0121930Y0135965D01*
X0121930Y0136564D02*
X0094491Y0136564D01*
X0089380Y0131775D02*
X0056989Y0131775D01*
X0056951Y0132374D02*
X0088781Y0132374D01*
X0088183Y0132972D02*
X0056703Y0132972D01*
X0056455Y0133571D02*
X0087584Y0133571D01*
X0086986Y0134170D02*
X0056207Y0134170D01*
X0057680Y0141675D02*
X0057680Y0161794D01*
X0059358Y0161794D01*
X0060055Y0162083D01*
X0060055Y0160604D01*
X0060588Y0159317D01*
X0061572Y0158333D01*
X0062859Y0157800D01*
X0075695Y0157800D01*
X0074680Y0156785D01*
X0074680Y0151815D01*
X0075370Y0151125D01*
X0068002Y0151125D01*
X0065650Y0150151D01*
X0063850Y0148351D01*
X0062875Y0145998D01*
X0062875Y0143452D01*
X0063611Y0141675D01*
X0057680Y0141675D01*
X0057680Y0141950D02*
X0063497Y0141950D01*
X0063249Y0142549D02*
X0057680Y0142549D01*
X0057680Y0143147D02*
X0063002Y0143147D01*
X0062875Y0143746D02*
X0057680Y0143746D01*
X0057680Y0144344D02*
X0062875Y0144344D01*
X0062875Y0144943D02*
X0057680Y0144943D01*
X0057680Y0145541D02*
X0062875Y0145541D01*
X0062934Y0146140D02*
X0057680Y0146140D01*
X0057680Y0146738D02*
X0063182Y0146738D01*
X0063430Y0147337D02*
X0057680Y0147337D01*
X0057680Y0147935D02*
X0063678Y0147935D01*
X0064033Y0148534D02*
X0057680Y0148534D01*
X0057680Y0149132D02*
X0064631Y0149132D01*
X0065230Y0149731D02*
X0057680Y0149731D01*
X0057680Y0150329D02*
X0066081Y0150329D01*
X0067526Y0150928D02*
X0057680Y0150928D01*
X0057680Y0151526D02*
X0074968Y0151526D01*
X0074680Y0152125D02*
X0057680Y0152125D01*
X0057680Y0152723D02*
X0074680Y0152723D01*
X0074680Y0153322D02*
X0057680Y0153322D01*
X0057680Y0153920D02*
X0074680Y0153920D01*
X0074680Y0154519D02*
X0057680Y0154519D01*
X0057680Y0155117D02*
X0074680Y0155117D01*
X0074680Y0155716D02*
X0057680Y0155716D01*
X0057680Y0156314D02*
X0074680Y0156314D01*
X0074808Y0156913D02*
X0057680Y0156913D01*
X0057680Y0157511D02*
X0075406Y0157511D01*
X0077009Y0164800D02*
X0067055Y0164800D01*
X0067055Y0171371D01*
X0066522Y0172658D01*
X0063397Y0175783D01*
X0062413Y0176767D01*
X0061126Y0177300D01*
X0022859Y0177300D01*
X0021572Y0176767D01*
X0020588Y0175783D01*
X0020055Y0174496D01*
X0020055Y0174305D01*
X0019358Y0174594D01*
X0009412Y0174594D01*
X0008180Y0174084D01*
X0008180Y0174850D01*
X0009647Y0176317D01*
X0010180Y0177604D01*
X0010180Y0182315D01*
X0010565Y0182700D01*
X0068680Y0182700D01*
X0068680Y0180815D01*
X0071180Y0178315D01*
X0071180Y0175513D01*
X0071713Y0174227D01*
X0076919Y0169020D01*
X0076919Y0165016D01*
X0077009Y0164800D01*
X0076919Y0165292D02*
X0067055Y0165292D01*
X0067055Y0165891D02*
X0076919Y0165891D01*
X0076919Y0166489D02*
X0067055Y0166489D01*
X0067055Y0167088D02*
X0076919Y0167088D01*
X0076919Y0167686D02*
X0067055Y0167686D01*
X0067055Y0168285D02*
X0076919Y0168285D01*
X0076919Y0168883D02*
X0067055Y0168883D01*
X0067055Y0169482D02*
X0076458Y0169482D01*
X0075859Y0170080D02*
X0067055Y0170080D01*
X0067055Y0170679D02*
X0075261Y0170679D01*
X0074662Y0171277D02*
X0067055Y0171277D01*
X0066846Y0171876D02*
X0074064Y0171876D01*
X0073465Y0172474D02*
X0066598Y0172474D01*
X0066107Y0173073D02*
X0072867Y0173073D01*
X0072268Y0173671D02*
X0065508Y0173671D01*
X0064910Y0174270D02*
X0071695Y0174270D01*
X0071447Y0174868D02*
X0064311Y0174868D01*
X0063713Y0175467D02*
X0071199Y0175467D01*
X0071180Y0176065D02*
X0063114Y0176065D01*
X0062516Y0176664D02*
X0071180Y0176664D01*
X0071180Y0177262D02*
X0061217Y0177262D01*
X0068680Y0180853D02*
X0010180Y0180853D01*
X0010180Y0180255D02*
X0069240Y0180255D01*
X0069838Y0179656D02*
X0010180Y0179656D01*
X0010180Y0179058D02*
X0070437Y0179058D01*
X0071035Y0178459D02*
X0010180Y0178459D01*
X0010180Y0177861D02*
X0071180Y0177861D01*
X0068680Y0181452D02*
X0010180Y0181452D01*
X0010180Y0182050D02*
X0068680Y0182050D01*
X0068680Y0182649D02*
X0010514Y0182649D01*
X0010039Y0177262D02*
X0022768Y0177262D01*
X0021469Y0176664D02*
X0009791Y0176664D01*
X0009395Y0176065D02*
X0020871Y0176065D01*
X0020457Y0175467D02*
X0008797Y0175467D01*
X0008198Y0174868D02*
X0020209Y0174868D01*
X0027055Y0170080D02*
X0044539Y0170080D01*
X0044291Y0169482D02*
X0027055Y0169482D01*
X0027055Y0168883D02*
X0044285Y0168883D01*
X0044285Y0168285D02*
X0027055Y0168285D01*
X0027055Y0167686D02*
X0044285Y0167686D01*
X0044285Y0167088D02*
X0027055Y0167088D01*
X0027055Y0166489D02*
X0044463Y0166489D01*
X0044711Y0165891D02*
X0027055Y0165891D01*
X0027055Y0165292D02*
X0044959Y0165292D01*
X0045207Y0164694D02*
X0027055Y0164694D01*
X0027055Y0164095D02*
X0045732Y0164095D01*
X0046331Y0163497D02*
X0027055Y0163497D01*
X0027055Y0162898D02*
X0046929Y0162898D01*
X0048190Y0162300D02*
X0027055Y0162300D01*
X0010680Y0161794D02*
X0010680Y0142875D01*
X0008180Y0145375D01*
X0008180Y0162304D01*
X0009412Y0161794D01*
X0010680Y0161794D01*
X0010680Y0161701D02*
X0008180Y0161701D01*
X0008180Y0161103D02*
X0010680Y0161103D01*
X0010680Y0160504D02*
X0008180Y0160504D01*
X0008180Y0159905D02*
X0010680Y0159905D01*
X0010680Y0159307D02*
X0008180Y0159307D01*
X0008180Y0158708D02*
X0010680Y0158708D01*
X0010680Y0158110D02*
X0008180Y0158110D01*
X0008180Y0157511D02*
X0010680Y0157511D01*
X0010680Y0156913D02*
X0008180Y0156913D01*
X0008180Y0156314D02*
X0010680Y0156314D01*
X0010680Y0155716D02*
X0008180Y0155716D01*
X0008180Y0155117D02*
X0010680Y0155117D01*
X0010680Y0154519D02*
X0008180Y0154519D01*
X0008180Y0153920D02*
X0010680Y0153920D01*
X0010680Y0153322D02*
X0008180Y0153322D01*
X0008180Y0152723D02*
X0010680Y0152723D01*
X0010680Y0152125D02*
X0008180Y0152125D01*
X0008180Y0151526D02*
X0010680Y0151526D01*
X0010680Y0150928D02*
X0008180Y0150928D01*
X0008180Y0150329D02*
X0010680Y0150329D01*
X0010680Y0149731D02*
X0008180Y0149731D01*
X0008180Y0149132D02*
X0010680Y0149132D01*
X0010680Y0148534D02*
X0008180Y0148534D01*
X0008180Y0147935D02*
X0010680Y0147935D01*
X0010680Y0147337D02*
X0008180Y0147337D01*
X0008180Y0146738D02*
X0010680Y0146738D01*
X0010680Y0146140D02*
X0008180Y0146140D01*
X0008180Y0145541D02*
X0010680Y0145541D01*
X0010680Y0144943D02*
X0008612Y0144943D01*
X0009211Y0144344D02*
X0010680Y0144344D01*
X0010680Y0143746D02*
X0009809Y0143746D01*
X0010408Y0143147D02*
X0010680Y0143147D01*
X0005296Y0138359D02*
X0004380Y0138359D01*
X0004380Y0137761D02*
X0005895Y0137761D01*
X0006493Y0137162D02*
X0004380Y0137162D01*
X0004380Y0136564D02*
X0007092Y0136564D01*
X0007690Y0135965D02*
X0004380Y0135965D01*
X0004380Y0135367D02*
X0008289Y0135367D01*
X0008366Y0135289D02*
X0007916Y0134839D01*
X0006941Y0132486D01*
X0006941Y0129940D01*
X0007916Y0127588D01*
X0009716Y0125788D01*
X0010882Y0125305D01*
X0010416Y0124839D01*
X0009441Y0122486D01*
X0009441Y0119940D01*
X0010416Y0117588D01*
X0010882Y0117122D01*
X0009716Y0116639D01*
X0007916Y0114839D01*
X0006941Y0112486D01*
X0006941Y0109940D01*
X0007916Y0107588D01*
X0009716Y0105788D01*
X0010680Y0105388D01*
X0010680Y0080668D01*
X0009502Y0080668D01*
X0007150Y0079694D01*
X0005350Y0077894D01*
X0004380Y0075553D01*
X0004380Y0139275D01*
X0008366Y0135289D01*
X0007886Y0134768D02*
X0004380Y0134768D01*
X0004380Y0134170D02*
X0007639Y0134170D01*
X0007391Y0133571D02*
X0004380Y0133571D01*
X0004380Y0132972D02*
X0007143Y0132972D01*
X0006941Y0132374D02*
X0004380Y0132374D01*
X0004380Y0131775D02*
X0006941Y0131775D01*
X0006941Y0131177D02*
X0004380Y0131177D01*
X0004380Y0130578D02*
X0006941Y0130578D01*
X0006941Y0129980D02*
X0004380Y0129980D01*
X0004380Y0129381D02*
X0007173Y0129381D01*
X0007421Y0128783D02*
X0004380Y0128783D01*
X0004380Y0128184D02*
X0007669Y0128184D01*
X0007918Y0127586D02*
X0004380Y0127586D01*
X0004380Y0126987D02*
X0008516Y0126987D01*
X0009115Y0126389D02*
X0004380Y0126389D01*
X0004380Y0125790D02*
X0009713Y0125790D01*
X0010769Y0125192D02*
X0004380Y0125192D01*
X0004380Y0124593D02*
X0010314Y0124593D01*
X0010066Y0123995D02*
X0004380Y0123995D01*
X0004380Y0123396D02*
X0009818Y0123396D01*
X0009570Y0122798D02*
X0004380Y0122798D01*
X0004380Y0122199D02*
X0009441Y0122199D01*
X0009441Y0121601D02*
X0004380Y0121601D01*
X0004380Y0121002D02*
X0009441Y0121002D01*
X0009441Y0120404D02*
X0004380Y0120404D01*
X0004380Y0119805D02*
X0009497Y0119805D01*
X0009745Y0119207D02*
X0004380Y0119207D01*
X0004380Y0118608D02*
X0009993Y0118608D01*
X0010241Y0118010D02*
X0004380Y0118010D01*
X0004380Y0117411D02*
X0010593Y0117411D01*
X0010135Y0116813D02*
X0004380Y0116813D01*
X0004380Y0116214D02*
X0009291Y0116214D01*
X0008693Y0115616D02*
X0004380Y0115616D01*
X0004380Y0115017D02*
X0008094Y0115017D01*
X0007742Y0114419D02*
X0004380Y0114419D01*
X0004380Y0113820D02*
X0007494Y0113820D01*
X0007246Y0113222D02*
X0004380Y0113222D01*
X0004380Y0112623D02*
X0006998Y0112623D01*
X0006941Y0112025D02*
X0004380Y0112025D01*
X0004380Y0111426D02*
X0006941Y0111426D01*
X0006941Y0110828D02*
X0004380Y0110828D01*
X0004380Y0110229D02*
X0006941Y0110229D01*
X0007070Y0109631D02*
X0004380Y0109631D01*
X0004380Y0109032D02*
X0007318Y0109032D01*
X0007566Y0108434D02*
X0004380Y0108434D01*
X0004380Y0107835D02*
X0007813Y0107835D01*
X0008267Y0107237D02*
X0004380Y0107237D01*
X0004380Y0106638D02*
X0008866Y0106638D01*
X0009464Y0106039D02*
X0004380Y0106039D01*
X0004380Y0105441D02*
X0010553Y0105441D01*
X0010680Y0104842D02*
X0004380Y0104842D01*
X0004380Y0104244D02*
X0010680Y0104244D01*
X0010680Y0103645D02*
X0004380Y0103645D01*
X0004380Y0103047D02*
X0010680Y0103047D01*
X0010680Y0102448D02*
X0004380Y0102448D01*
X0004380Y0101850D02*
X0010680Y0101850D01*
X0010680Y0101251D02*
X0004380Y0101251D01*
X0004380Y0100653D02*
X0010680Y0100653D01*
X0010680Y0100054D02*
X0004380Y0100054D01*
X0004380Y0099456D02*
X0010680Y0099456D01*
X0010680Y0098857D02*
X0004380Y0098857D01*
X0004380Y0098259D02*
X0010680Y0098259D01*
X0010680Y0097660D02*
X0004380Y0097660D01*
X0004380Y0097062D02*
X0010680Y0097062D01*
X0010680Y0096463D02*
X0004380Y0096463D01*
X0004380Y0095865D02*
X0010680Y0095865D01*
X0010680Y0095266D02*
X0004380Y0095266D01*
X0004380Y0094668D02*
X0010680Y0094668D01*
X0010680Y0094069D02*
X0004380Y0094069D01*
X0004380Y0093471D02*
X0010680Y0093471D01*
X0010680Y0092872D02*
X0004380Y0092872D01*
X0004380Y0092274D02*
X0010680Y0092274D01*
X0010680Y0091675D02*
X0004380Y0091675D01*
X0004380Y0091077D02*
X0010680Y0091077D01*
X0010680Y0090478D02*
X0004380Y0090478D01*
X0004380Y0089880D02*
X0010680Y0089880D01*
X0010680Y0089281D02*
X0004380Y0089281D01*
X0004380Y0088683D02*
X0010680Y0088683D01*
X0010680Y0088084D02*
X0004380Y0088084D01*
X0004380Y0087486D02*
X0010680Y0087486D01*
X0010680Y0086887D02*
X0004380Y0086887D01*
X0004380Y0086289D02*
X0010680Y0086289D01*
X0010680Y0085690D02*
X0004380Y0085690D01*
X0004380Y0085092D02*
X0010680Y0085092D01*
X0010680Y0084493D02*
X0004380Y0084493D01*
X0004380Y0083895D02*
X0010680Y0083895D01*
X0010680Y0083296D02*
X0004380Y0083296D01*
X0004380Y0082698D02*
X0010680Y0082698D01*
X0010680Y0082099D02*
X0004380Y0082099D01*
X0004380Y0081501D02*
X0010680Y0081501D01*
X0010680Y0080902D02*
X0004380Y0080902D01*
X0004380Y0080303D02*
X0008621Y0080303D01*
X0007176Y0079705D02*
X0004380Y0079705D01*
X0004380Y0079106D02*
X0006562Y0079106D01*
X0005964Y0078508D02*
X0004380Y0078508D01*
X0004380Y0077909D02*
X0005365Y0077909D01*
X0005108Y0077311D02*
X0004380Y0077311D01*
X0004380Y0076712D02*
X0004860Y0076712D01*
X0004612Y0076114D02*
X0004380Y0076114D01*
X0004380Y0072523D02*
X0004571Y0072523D01*
X0004380Y0071924D02*
X0004819Y0071924D01*
X0005067Y0071326D02*
X0004380Y0071326D01*
X0004380Y0070727D02*
X0005315Y0070727D01*
X0005864Y0070129D02*
X0004380Y0070129D01*
X0004380Y0069530D02*
X0006462Y0069530D01*
X0007061Y0068932D02*
X0004380Y0068932D01*
X0004380Y0068333D02*
X0008380Y0068333D01*
X0024024Y0069530D02*
X0026305Y0069530D01*
X0026305Y0068932D02*
X0024623Y0068932D01*
X0025221Y0068333D02*
X0026305Y0068333D01*
X0026305Y0067735D02*
X0025820Y0067735D01*
X0033305Y0067735D02*
X0068805Y0067735D01*
X0068805Y0068333D02*
X0060570Y0068333D01*
X0059448Y0067869D02*
X0061801Y0068843D01*
X0063601Y0070643D01*
X0064575Y0072995D01*
X0064575Y0075542D01*
X0063601Y0077894D01*
X0061801Y0079694D01*
X0059448Y0080668D01*
X0049502Y0080668D01*
X0047150Y0079694D01*
X0045350Y0077894D01*
X0044375Y0075542D01*
X0044375Y0072995D01*
X0045350Y0070643D01*
X0047150Y0068843D01*
X0049502Y0067869D01*
X0059448Y0067869D01*
X0061890Y0068932D02*
X0068805Y0068932D01*
X0068805Y0069530D02*
X0062488Y0069530D01*
X0063087Y0070129D02*
X0068805Y0070129D01*
X0068805Y0070727D02*
X0063636Y0070727D01*
X0063884Y0071326D02*
X0068805Y0071326D01*
X0068805Y0071924D02*
X0064132Y0071924D01*
X0064379Y0072523D02*
X0068805Y0072523D01*
X0068805Y0073121D02*
X0064575Y0073121D01*
X0064575Y0073720D02*
X0068805Y0073720D01*
X0068805Y0074318D02*
X0064575Y0074318D01*
X0064575Y0074917D02*
X0068805Y0074917D01*
X0068805Y0075515D02*
X0064575Y0075515D01*
X0064338Y0076114D02*
X0068805Y0076114D01*
X0068805Y0076712D02*
X0064090Y0076712D01*
X0063842Y0077311D02*
X0068805Y0077311D01*
X0068805Y0077909D02*
X0063585Y0077909D01*
X0062987Y0078508D02*
X0068805Y0078508D01*
X0068805Y0079106D02*
X0062388Y0079106D01*
X0061774Y0079705D02*
X0068805Y0079705D01*
X0068805Y0080303D02*
X0060330Y0080303D01*
X0066129Y0083895D02*
X0033305Y0083895D01*
X0033305Y0084493D02*
X0065881Y0084493D01*
X0065680Y0085092D02*
X0033305Y0085092D01*
X0033305Y0085690D02*
X0065680Y0085690D01*
X0063925Y0086289D02*
X0035025Y0086289D01*
X0036470Y0086887D02*
X0062480Y0086887D01*
X0061688Y0087486D02*
X0037262Y0087486D01*
X0037861Y0088084D02*
X0061090Y0088084D01*
X0060491Y0088683D02*
X0038459Y0088683D01*
X0038790Y0089281D02*
X0060160Y0089281D01*
X0059912Y0089880D02*
X0039038Y0089880D01*
X0039286Y0090478D02*
X0059665Y0090478D01*
X0059417Y0091077D02*
X0039534Y0091077D01*
X0039575Y0091675D02*
X0059375Y0091675D01*
X0059375Y0092274D02*
X0039575Y0092274D01*
X0039575Y0092872D02*
X0059375Y0092872D01*
X0059375Y0093471D02*
X0039575Y0093471D01*
X0039432Y0094069D02*
X0059519Y0094069D01*
X0059767Y0094668D02*
X0039184Y0094668D01*
X0038936Y0095266D02*
X0060015Y0095266D01*
X0060263Y0095865D02*
X0038688Y0095865D01*
X0038668Y0096463D02*
X0060738Y0096463D01*
X0061337Y0097062D02*
X0039267Y0097062D01*
X0039865Y0097660D02*
X0061935Y0097660D01*
X0063076Y0098259D02*
X0040464Y0098259D01*
X0033305Y0083296D02*
X0066609Y0083296D01*
X0067208Y0082698D02*
X0033305Y0082698D01*
X0033305Y0082099D02*
X0067806Y0082099D01*
X0068405Y0081501D02*
X0033305Y0081501D01*
X0033305Y0080902D02*
X0068805Y0080902D01*
X0068805Y0067136D02*
X0033305Y0067136D01*
X0033305Y0066538D02*
X0068805Y0066538D01*
X0068805Y0065939D02*
X0033305Y0065939D01*
X0033305Y0065341D02*
X0068805Y0065341D01*
X0068805Y0064742D02*
X0033305Y0064742D01*
X0033305Y0064144D02*
X0068805Y0064144D01*
X0068805Y0063545D02*
X0033305Y0063545D01*
X0033305Y0062947D02*
X0068805Y0062947D01*
X0068805Y0062348D02*
X0033305Y0062348D01*
X0033305Y0061750D02*
X0068805Y0061750D01*
X0068805Y0061151D02*
X0033305Y0061151D01*
X0033305Y0060553D02*
X0068805Y0060553D01*
X0068805Y0059954D02*
X0033305Y0059954D01*
X0033305Y0059356D02*
X0068805Y0059356D01*
X0068805Y0058757D02*
X0033305Y0058757D01*
X0033305Y0058159D02*
X0068805Y0058159D01*
X0068805Y0057560D02*
X0033305Y0057560D01*
X0033305Y0056962D02*
X0068805Y0056962D01*
X0068805Y0056363D02*
X0033305Y0056363D01*
X0033305Y0055765D02*
X0068805Y0055765D01*
X0068805Y0055166D02*
X0033305Y0055166D01*
X0033305Y0054568D02*
X0068805Y0054568D01*
X0068805Y0053969D02*
X0033305Y0053969D01*
X0033305Y0053370D02*
X0068805Y0053370D01*
X0068805Y0052772D02*
X0033305Y0052772D01*
X0033305Y0052173D02*
X0068805Y0052173D01*
X0068805Y0051575D02*
X0033305Y0051575D01*
X0033305Y0050976D02*
X0068805Y0050976D01*
X0068805Y0050378D02*
X0033305Y0050378D01*
X0033305Y0049779D02*
X0068805Y0049779D01*
X0068805Y0049181D02*
X0033305Y0049181D01*
X0033305Y0048582D02*
X0068805Y0048582D01*
X0068805Y0047984D02*
X0033305Y0047984D01*
X0033305Y0047385D02*
X0068805Y0047385D01*
X0068805Y0046787D02*
X0033305Y0046787D01*
X0033305Y0046188D02*
X0068805Y0046188D01*
X0068805Y0045590D02*
X0033305Y0045590D01*
X0033305Y0044991D02*
X0068805Y0044991D01*
X0068805Y0044393D02*
X0033305Y0044393D01*
X0033305Y0043794D02*
X0068805Y0043794D01*
X0068805Y0043196D02*
X0033305Y0043196D01*
X0033305Y0042597D02*
X0068805Y0042597D01*
X0068805Y0041999D02*
X0033305Y0041999D01*
X0033305Y0041400D02*
X0068805Y0041400D01*
X0068805Y0040802D02*
X0033305Y0040802D01*
X0033305Y0040203D02*
X0068805Y0040203D01*
X0068805Y0039605D02*
X0033325Y0039605D01*
X0033923Y0039006D02*
X0068805Y0039006D01*
X0068805Y0038408D02*
X0034522Y0038408D01*
X0035121Y0037809D02*
X0068805Y0037809D01*
X0068805Y0037211D02*
X0035719Y0037211D01*
X0036318Y0036612D02*
X0068805Y0036612D01*
X0068805Y0036014D02*
X0036916Y0036014D01*
X0037515Y0035415D02*
X0068805Y0035415D01*
X0068805Y0034817D02*
X0065128Y0034817D01*
X0066351Y0034218D02*
X0068788Y0034218D01*
X0068190Y0033620D02*
X0066950Y0033620D01*
X0067548Y0033021D02*
X0067591Y0033021D01*
X0060012Y0034817D02*
X0055128Y0034817D01*
X0056351Y0034218D02*
X0058788Y0034218D01*
X0058190Y0033620D02*
X0056950Y0033620D01*
X0057548Y0033021D02*
X0057591Y0033021D01*
X0050012Y0034817D02*
X0045128Y0034817D01*
X0046351Y0034218D02*
X0048788Y0034218D01*
X0048190Y0033620D02*
X0046950Y0033620D01*
X0047548Y0033021D02*
X0047591Y0033021D01*
X0040012Y0034817D02*
X0038113Y0034817D01*
X0038712Y0034218D02*
X0038788Y0034218D01*
X0033600Y0029430D02*
X0031625Y0029430D01*
X0032223Y0028832D02*
X0034199Y0028832D01*
X0034797Y0028233D02*
X0032822Y0028233D01*
X0033420Y0027634D02*
X0035396Y0027634D01*
X0035994Y0027036D02*
X0034019Y0027036D01*
X0034617Y0026437D02*
X0036170Y0026437D01*
X0036170Y0026860D02*
X0036170Y0024885D01*
X0030805Y0030250D01*
X0030805Y0032225D01*
X0036170Y0026860D01*
X0036170Y0025839D02*
X0035216Y0025839D01*
X0035814Y0025240D02*
X0036170Y0025240D01*
X0033002Y0030029D02*
X0031026Y0030029D01*
X0030805Y0030627D02*
X0032403Y0030627D01*
X0031805Y0031226D02*
X0030805Y0031226D01*
X0030805Y0031824D02*
X0031206Y0031824D01*
X0056430Y0016358D02*
X0057570Y0017498D01*
X0058944Y0016123D01*
X0059121Y0016050D01*
X0056430Y0016050D01*
X0056430Y0016358D01*
X0056430Y0016263D02*
X0058805Y0016263D01*
X0058206Y0016861D02*
X0056933Y0016861D01*
X0057532Y0017460D02*
X0057608Y0017460D01*
X0048380Y0068333D02*
X0033305Y0068333D01*
X0033305Y0068932D02*
X0047061Y0068932D01*
X0046462Y0069530D02*
X0033305Y0069530D01*
X0033305Y0070129D02*
X0045864Y0070129D01*
X0045315Y0070727D02*
X0033305Y0070727D01*
X0033305Y0071326D02*
X0045067Y0071326D01*
X0044819Y0071924D02*
X0033305Y0071924D01*
X0033305Y0072523D02*
X0044571Y0072523D01*
X0044375Y0073121D02*
X0033305Y0073121D01*
X0033305Y0073720D02*
X0044375Y0073720D01*
X0044375Y0074318D02*
X0033305Y0074318D01*
X0033305Y0074917D02*
X0044375Y0074917D01*
X0044375Y0075515D02*
X0033305Y0075515D01*
X0033305Y0076114D02*
X0044612Y0076114D01*
X0044860Y0076712D02*
X0033305Y0076712D01*
X0033305Y0077311D02*
X0045108Y0077311D01*
X0045365Y0077909D02*
X0033305Y0077909D01*
X0033305Y0078508D02*
X0045964Y0078508D01*
X0046562Y0079106D02*
X0033305Y0079106D01*
X0033305Y0079705D02*
X0047176Y0079705D01*
X0048621Y0080303D02*
X0033305Y0080303D01*
X0031313Y0135367D02*
X0037664Y0135367D01*
X0037065Y0135965D02*
X0030715Y0135965D01*
X0030116Y0136564D02*
X0036467Y0136564D01*
X0035868Y0137162D02*
X0029518Y0137162D01*
X0028919Y0137761D02*
X0035270Y0137761D01*
X0057680Y0158110D02*
X0062110Y0158110D01*
X0061197Y0158708D02*
X0057680Y0158708D01*
X0057680Y0159307D02*
X0060598Y0159307D01*
X0060344Y0159905D02*
X0057680Y0159905D01*
X0057680Y0160504D02*
X0060096Y0160504D01*
X0060055Y0161103D02*
X0057680Y0161103D01*
X0057680Y0161701D02*
X0060055Y0161701D01*
X0078577Y0177262D02*
X0215515Y0177262D01*
X0215515Y0176664D02*
X0079175Y0176664D01*
X0079774Y0176065D02*
X0079947Y0176065D01*
X0078180Y0177861D02*
X0215515Y0177861D01*
X0215515Y0178459D02*
X0078325Y0178459D01*
X0078923Y0179058D02*
X0215515Y0179058D01*
X0215515Y0179656D02*
X0079522Y0179656D01*
X0080120Y0180255D02*
X0215515Y0180255D01*
X0215515Y0180853D02*
X0080680Y0180853D01*
X0080680Y0181452D02*
X0215515Y0181452D01*
X0215515Y0182050D02*
X0080680Y0182050D01*
X0080680Y0182649D02*
X0215515Y0182649D01*
X0215515Y0183247D02*
X0141280Y0183247D01*
X0141280Y0183846D02*
X0197286Y0183846D01*
X0197080Y0184444D02*
X0141280Y0184444D01*
X0141280Y0185043D02*
X0197080Y0185043D01*
X0197080Y0185641D02*
X0141280Y0185641D01*
X0141280Y0186240D02*
X0197080Y0186240D01*
X0197080Y0186839D02*
X0141280Y0186839D01*
X0141280Y0187437D02*
X0197080Y0187437D01*
X0197080Y0188036D02*
X0141280Y0188036D01*
X0141280Y0188634D02*
X0197080Y0188634D01*
X0197080Y0189233D02*
X0141280Y0189233D01*
X0141280Y0189831D02*
X0197080Y0189831D01*
X0197080Y0190430D02*
X0141280Y0190430D01*
X0141280Y0191028D02*
X0197080Y0191028D01*
X0197080Y0191627D02*
X0141280Y0191627D01*
X0141280Y0192225D02*
X0197080Y0192225D01*
X0197080Y0192824D02*
X0141280Y0192824D01*
X0141280Y0193422D02*
X0142520Y0193422D01*
X0141922Y0194021D02*
X0141280Y0194021D01*
X0141280Y0194619D02*
X0141323Y0194619D01*
X0147375Y0193422D02*
X0152520Y0193422D01*
X0151922Y0194021D02*
X0147973Y0194021D01*
X0148572Y0194619D02*
X0151323Y0194619D01*
X0150725Y0195218D02*
X0149170Y0195218D01*
X0149769Y0195816D02*
X0150126Y0195816D01*
X0149948Y0202117D02*
X0151887Y0204056D01*
X0149948Y0205995D01*
X0148009Y0204056D01*
X0149948Y0202117D01*
X0149665Y0202400D02*
X0150231Y0202400D01*
X0150829Y0202998D02*
X0149066Y0202998D01*
X0148468Y0203597D02*
X0151428Y0203597D01*
X0151747Y0204195D02*
X0148148Y0204195D01*
X0148747Y0204794D02*
X0151149Y0204794D01*
X0150550Y0205392D02*
X0149345Y0205392D01*
X0149944Y0205991D02*
X0149952Y0205991D01*
X0149948Y0212117D02*
X0147309Y0214756D01*
X0142587Y0214756D01*
X0141280Y0213449D01*
X0141280Y0223009D01*
X0197080Y0223009D01*
X0197080Y0214756D01*
X0192587Y0214756D01*
X0189948Y0212117D01*
X0187309Y0214756D01*
X0182587Y0214756D01*
X0179948Y0212117D01*
X0177309Y0214756D01*
X0172587Y0214756D01*
X0169948Y0212117D01*
X0167309Y0214756D01*
X0162587Y0214756D01*
X0159948Y0212117D01*
X0157309Y0214756D01*
X0152587Y0214756D01*
X0149948Y0212117D01*
X0150405Y0212574D02*
X0149490Y0212574D01*
X0148892Y0213173D02*
X0151004Y0213173D01*
X0151602Y0213772D02*
X0148293Y0213772D01*
X0147695Y0214370D02*
X0152201Y0214370D01*
X0157695Y0214370D02*
X0162201Y0214370D01*
X0161602Y0213772D02*
X0158293Y0213772D01*
X0158892Y0213173D02*
X0161004Y0213173D01*
X0160405Y0212574D02*
X0159490Y0212574D01*
X0159948Y0205995D02*
X0158009Y0204056D01*
X0159948Y0202117D01*
X0161887Y0204056D01*
X0159948Y0205995D01*
X0159944Y0205991D02*
X0159952Y0205991D01*
X0160550Y0205392D02*
X0159345Y0205392D01*
X0158747Y0204794D02*
X0161149Y0204794D01*
X0161747Y0204195D02*
X0158148Y0204195D01*
X0158468Y0203597D02*
X0161428Y0203597D01*
X0160829Y0202998D02*
X0159066Y0202998D01*
X0159665Y0202400D02*
X0160231Y0202400D01*
X0160126Y0195816D02*
X0159769Y0195816D01*
X0159170Y0195218D02*
X0160725Y0195218D01*
X0161323Y0194619D02*
X0158572Y0194619D01*
X0157973Y0194021D02*
X0161922Y0194021D01*
X0162520Y0193422D02*
X0157375Y0193422D01*
X0167375Y0193422D02*
X0172520Y0193422D01*
X0171922Y0194021D02*
X0167973Y0194021D01*
X0168572Y0194619D02*
X0171323Y0194619D01*
X0170725Y0195218D02*
X0169170Y0195218D01*
X0169769Y0195816D02*
X0170126Y0195816D01*
X0169948Y0202117D02*
X0171887Y0204056D01*
X0169948Y0205995D01*
X0168009Y0204056D01*
X0169948Y0202117D01*
X0169665Y0202400D02*
X0170231Y0202400D01*
X0170829Y0202998D02*
X0169066Y0202998D01*
X0168468Y0203597D02*
X0171428Y0203597D01*
X0171747Y0204195D02*
X0168148Y0204195D01*
X0168747Y0204794D02*
X0171149Y0204794D01*
X0170550Y0205392D02*
X0169345Y0205392D01*
X0169944Y0205991D02*
X0169952Y0205991D01*
X0170405Y0212574D02*
X0169490Y0212574D01*
X0168892Y0213173D02*
X0171004Y0213173D01*
X0171602Y0213772D02*
X0168293Y0213772D01*
X0167695Y0214370D02*
X0172201Y0214370D01*
X0177695Y0214370D02*
X0182201Y0214370D01*
X0181602Y0213772D02*
X0178293Y0213772D01*
X0178892Y0213173D02*
X0181004Y0213173D01*
X0180405Y0212574D02*
X0179490Y0212574D01*
X0179948Y0205995D02*
X0178009Y0204056D01*
X0179948Y0202117D01*
X0181887Y0204056D01*
X0179948Y0205995D01*
X0179944Y0205991D02*
X0179952Y0205991D01*
X0180550Y0205392D02*
X0179345Y0205392D01*
X0178747Y0204794D02*
X0181149Y0204794D01*
X0181747Y0204195D02*
X0178148Y0204195D01*
X0178468Y0203597D02*
X0181428Y0203597D01*
X0180829Y0202998D02*
X0179066Y0202998D01*
X0179665Y0202400D02*
X0180231Y0202400D01*
X0180126Y0195816D02*
X0179769Y0195816D01*
X0179170Y0195218D02*
X0180725Y0195218D01*
X0181323Y0194619D02*
X0178572Y0194619D01*
X0177973Y0194021D02*
X0181922Y0194021D01*
X0182520Y0193422D02*
X0177375Y0193422D01*
X0187375Y0193422D02*
X0192520Y0193422D01*
X0191922Y0194021D02*
X0187973Y0194021D01*
X0188572Y0194619D02*
X0191323Y0194619D01*
X0190725Y0195218D02*
X0189170Y0195218D01*
X0189769Y0195816D02*
X0190126Y0195816D01*
X0189948Y0202117D02*
X0191887Y0204056D01*
X0189948Y0205995D01*
X0188009Y0204056D01*
X0189948Y0202117D01*
X0189665Y0202400D02*
X0190231Y0202400D01*
X0190829Y0202998D02*
X0189066Y0202998D01*
X0188468Y0203597D02*
X0191428Y0203597D01*
X0191747Y0204195D02*
X0188148Y0204195D01*
X0188747Y0204794D02*
X0191149Y0204794D01*
X0190550Y0205392D02*
X0189345Y0205392D01*
X0189944Y0205991D02*
X0189952Y0205991D01*
X0190405Y0212574D02*
X0189490Y0212574D01*
X0188892Y0213173D02*
X0191004Y0213173D01*
X0191602Y0213772D02*
X0188293Y0213772D01*
X0187695Y0214370D02*
X0192201Y0214370D01*
X0197080Y0214969D02*
X0141280Y0214969D01*
X0141280Y0215567D02*
X0197080Y0215567D01*
X0197080Y0216166D02*
X0141280Y0216166D01*
X0141280Y0216764D02*
X0197080Y0216764D01*
X0197080Y0217363D02*
X0141280Y0217363D01*
X0141280Y0217961D02*
X0197080Y0217961D01*
X0197080Y0218560D02*
X0141280Y0218560D01*
X0141280Y0219158D02*
X0197080Y0219158D01*
X0197080Y0219757D02*
X0141280Y0219757D01*
X0141280Y0220355D02*
X0197080Y0220355D01*
X0197080Y0220954D02*
X0141280Y0220954D01*
X0141280Y0221552D02*
X0197080Y0221552D01*
X0197080Y0222151D02*
X0141280Y0222151D01*
X0141280Y0222749D02*
X0197080Y0222749D01*
X0215515Y0176065D02*
X0094492Y0176065D01*
X0095518Y0175467D02*
X0215515Y0175467D01*
X0215515Y0174868D02*
X0096116Y0174868D01*
X0096714Y0174270D02*
X0110669Y0174270D01*
X0109224Y0173671D02*
X0096961Y0173671D01*
X0097209Y0173073D02*
X0108284Y0173073D01*
X0107686Y0172474D02*
X0097457Y0172474D01*
X0097519Y0165170D02*
X0106514Y0165170D01*
X0106668Y0164800D01*
X0097430Y0164800D01*
X0097519Y0165016D01*
X0097519Y0165170D01*
X0106376Y0157800D02*
X0085665Y0157800D01*
X0109605Y0157800D01*
X0117405Y0150000D01*
X0114930Y0150000D01*
X0107663Y0157267D01*
X0106376Y0157800D01*
X0107073Y0157511D02*
X0109894Y0157511D01*
X0110492Y0156913D02*
X0108017Y0156913D01*
X0108615Y0156314D02*
X0111091Y0156314D01*
X0111689Y0155716D02*
X0109214Y0155716D01*
X0109812Y0155117D02*
X0112288Y0155117D01*
X0112886Y0154519D02*
X0110411Y0154519D01*
X0111009Y0153920D02*
X0113485Y0153920D01*
X0114083Y0153322D02*
X0111608Y0153322D01*
X0112206Y0152723D02*
X0114682Y0152723D01*
X0115280Y0152125D02*
X0112805Y0152125D01*
X0113403Y0151526D02*
X0115879Y0151526D01*
X0116477Y0150928D02*
X0114002Y0150928D01*
X0114600Y0150329D02*
X0117076Y0150329D01*
X0122187Y0155117D02*
X0215515Y0155117D01*
X0215515Y0154519D02*
X0122786Y0154519D01*
X0123384Y0153920D02*
X0215515Y0153920D01*
X0215515Y0153322D02*
X0123983Y0153322D01*
X0124581Y0152723D02*
X0215515Y0152723D01*
X0215515Y0152125D02*
X0125180Y0152125D01*
X0125778Y0151526D02*
X0215515Y0151526D01*
X0215515Y0150928D02*
X0126377Y0150928D01*
X0126975Y0150329D02*
X0215515Y0150329D01*
X0215515Y0149731D02*
X0127574Y0149731D01*
X0128172Y0149132D02*
X0215515Y0149132D01*
X0215515Y0148534D02*
X0128771Y0148534D01*
X0129369Y0147935D02*
X0215515Y0147935D01*
X0215515Y0147337D02*
X0129780Y0147337D01*
X0130028Y0146738D02*
X0215515Y0146738D01*
X0215515Y0146140D02*
X0130180Y0146140D01*
X0130180Y0145541D02*
X0215515Y0145541D01*
X0215515Y0144943D02*
X0130180Y0144943D01*
X0130180Y0144344D02*
X0215515Y0144344D01*
X0215515Y0143746D02*
X0130180Y0143746D01*
X0130180Y0143147D02*
X0215515Y0143147D01*
X0215515Y0142549D02*
X0130180Y0142549D01*
X0130180Y0141950D02*
X0215515Y0141950D01*
X0215515Y0141352D02*
X0130180Y0141352D01*
X0130180Y0140753D02*
X0215515Y0140753D01*
X0215515Y0140155D02*
X0162538Y0140155D01*
X0163983Y0139556D02*
X0215515Y0139556D01*
X0215515Y0138958D02*
X0164828Y0138958D01*
X0165427Y0138359D02*
X0215515Y0138359D01*
X0215515Y0155716D02*
X0121589Y0155716D01*
X0120990Y0156314D02*
X0215515Y0156314D01*
X0215515Y0156913D02*
X0120392Y0156913D01*
X0119793Y0157511D02*
X0215515Y0157511D01*
X0215515Y0158110D02*
X0119195Y0158110D01*
X0118596Y0158708D02*
X0215515Y0158708D01*
X0215515Y0159307D02*
X0117998Y0159307D01*
X0117399Y0159905D02*
X0215515Y0159905D01*
X0215515Y0160504D02*
X0116801Y0160504D01*
X0116202Y0161103D02*
X0215515Y0161103D01*
X0215515Y0161701D02*
X0161173Y0161701D01*
X0160940Y0161605D02*
X0163293Y0162579D01*
X0165093Y0164379D01*
X0166067Y0166732D01*
X0166067Y0169278D01*
X0165093Y0171630D01*
X0163293Y0173430D01*
X0160940Y0174405D01*
X0150994Y0174405D01*
X0148642Y0173430D01*
X0146842Y0171630D01*
X0145867Y0169278D01*
X0145867Y0166732D01*
X0146842Y0164379D01*
X0148642Y0162579D01*
X0150994Y0161605D01*
X0160940Y0161605D01*
X0162618Y0162300D02*
X0215515Y0162300D01*
X0215515Y0162898D02*
X0163612Y0162898D01*
X0164210Y0163497D02*
X0215515Y0163497D01*
X0215515Y0164095D02*
X0164809Y0164095D01*
X0165223Y0164694D02*
X0215515Y0164694D01*
X0215515Y0165292D02*
X0165471Y0165292D01*
X0165719Y0165891D02*
X0215515Y0165891D01*
X0215515Y0166489D02*
X0165967Y0166489D01*
X0166067Y0167088D02*
X0215515Y0167088D01*
X0215515Y0167686D02*
X0166067Y0167686D01*
X0166067Y0168285D02*
X0215515Y0168285D01*
X0215515Y0168883D02*
X0166067Y0168883D01*
X0165983Y0169482D02*
X0215515Y0169482D01*
X0215515Y0170080D02*
X0165735Y0170080D01*
X0165487Y0170679D02*
X0215515Y0170679D01*
X0215515Y0171277D02*
X0165239Y0171277D01*
X0164847Y0171876D02*
X0215515Y0171876D01*
X0215515Y0172474D02*
X0164249Y0172474D01*
X0163650Y0173073D02*
X0215515Y0173073D01*
X0215515Y0173671D02*
X0162711Y0173671D01*
X0161266Y0174270D02*
X0215515Y0174270D01*
X0150669Y0174270D02*
X0121266Y0174270D01*
X0122711Y0173671D02*
X0149224Y0173671D01*
X0148284Y0173073D02*
X0123650Y0173073D01*
X0124249Y0172474D02*
X0147686Y0172474D01*
X0147087Y0171876D02*
X0124847Y0171876D01*
X0125239Y0171277D02*
X0146696Y0171277D01*
X0146448Y0170679D02*
X0125487Y0170679D01*
X0125735Y0170080D02*
X0146200Y0170080D01*
X0145952Y0169482D02*
X0125983Y0169482D01*
X0126067Y0168883D02*
X0145867Y0168883D01*
X0145867Y0168285D02*
X0126067Y0168285D01*
X0126067Y0167686D02*
X0145867Y0167686D01*
X0145867Y0167088D02*
X0126067Y0167088D01*
X0125967Y0166489D02*
X0145968Y0166489D01*
X0146216Y0165891D02*
X0125719Y0165891D01*
X0125471Y0165292D02*
X0146464Y0165292D01*
X0146712Y0164694D02*
X0125223Y0164694D01*
X0124809Y0164095D02*
X0147126Y0164095D01*
X0147725Y0163497D02*
X0124210Y0163497D01*
X0123612Y0162898D02*
X0148323Y0162898D01*
X0149317Y0162300D02*
X0122618Y0162300D01*
X0121173Y0161701D02*
X0150762Y0161701D01*
X0150680Y0140155D02*
X0141538Y0140155D01*
X0142983Y0139556D02*
X0149235Y0139556D01*
X0148390Y0138958D02*
X0143828Y0138958D01*
X0144427Y0138359D02*
X0147791Y0138359D01*
X0147193Y0137761D02*
X0145025Y0137761D01*
X0145428Y0137162D02*
X0146790Y0137162D01*
X0146543Y0136564D02*
X0145676Y0136564D01*
X0145924Y0135965D02*
X0146295Y0135965D01*
X0146155Y0131775D02*
X0146063Y0131775D01*
X0145815Y0131177D02*
X0146403Y0131177D01*
X0146651Y0130578D02*
X0145567Y0130578D01*
X0145320Y0129980D02*
X0146899Y0129980D01*
X0147454Y0129381D02*
X0144764Y0129381D01*
X0144166Y0128783D02*
X0148053Y0128783D01*
X0148651Y0128184D02*
X0143567Y0128184D01*
X0142352Y0127586D02*
X0149866Y0127586D01*
X0109990Y0137162D02*
X0102370Y0137162D01*
X0103616Y0137761D02*
X0108744Y0137761D01*
X0108146Y0138359D02*
X0104214Y0138359D01*
X0104813Y0138958D02*
X0107547Y0138958D01*
X0106979Y0139556D02*
X0105381Y0139556D01*
X0105629Y0140155D02*
X0106731Y0140155D01*
X0106483Y0140753D02*
X0105877Y0140753D01*
X0106125Y0141352D02*
X0106235Y0141352D01*
X0106180Y0145116D02*
X0105360Y0147095D01*
X0103475Y0148980D01*
X0101013Y0150000D01*
X0090347Y0150000D01*
X0087885Y0148980D01*
X0086000Y0147095D01*
X0084980Y0144633D01*
X0084980Y0141967D01*
X0085101Y0141675D01*
X0082339Y0141675D01*
X0083075Y0143452D01*
X0083075Y0145998D01*
X0082122Y0148300D01*
X0083165Y0148300D01*
X0085665Y0150800D01*
X0104230Y0150800D01*
X0107468Y0147563D01*
X0107000Y0147095D01*
X0106180Y0145116D01*
X0106004Y0145541D02*
X0106356Y0145541D01*
X0106604Y0146140D02*
X0105756Y0146140D01*
X0105508Y0146738D02*
X0106852Y0146738D01*
X0107242Y0147337D02*
X0105118Y0147337D01*
X0104520Y0147935D02*
X0107095Y0147935D01*
X0106496Y0148534D02*
X0103921Y0148534D01*
X0103107Y0149132D02*
X0105898Y0149132D01*
X0105299Y0149731D02*
X0101663Y0149731D01*
X0104701Y0150329D02*
X0085195Y0150329D01*
X0084596Y0149731D02*
X0089697Y0149731D01*
X0088252Y0149132D02*
X0083998Y0149132D01*
X0083399Y0148534D02*
X0087439Y0148534D01*
X0086840Y0147935D02*
X0082273Y0147935D01*
X0082521Y0147337D02*
X0086242Y0147337D01*
X0085852Y0146738D02*
X0082769Y0146738D01*
X0083017Y0146140D02*
X0085604Y0146140D01*
X0085356Y0145541D02*
X0083075Y0145541D01*
X0083075Y0144943D02*
X0085108Y0144943D01*
X0084980Y0144344D02*
X0083075Y0144344D01*
X0083075Y0143746D02*
X0084980Y0143746D01*
X0084980Y0143147D02*
X0082949Y0143147D01*
X0082701Y0142549D02*
X0084980Y0142549D01*
X0084987Y0141950D02*
X0082453Y0141950D01*
X0085665Y0157800D02*
X0085665Y0157800D01*
X0087209Y0173073D02*
X0087229Y0173073D01*
X0087477Y0173671D02*
X0086961Y0173671D01*
X0086714Y0174270D02*
X0087725Y0174270D01*
X0088322Y0174868D02*
X0086116Y0174868D01*
X0085518Y0175467D02*
X0088921Y0175467D01*
X0089947Y0176065D02*
X0084492Y0176065D01*
X0141280Y0203449D02*
X0141280Y0204663D01*
X0141887Y0204056D01*
X0141280Y0203449D01*
X0141280Y0203597D02*
X0141428Y0203597D01*
X0141280Y0204195D02*
X0141747Y0204195D01*
X0141602Y0213772D02*
X0141280Y0213772D01*
X0141280Y0214370D02*
X0142201Y0214370D01*
X0008630Y0174270D02*
X0008180Y0174270D01*
X0008180Y0162300D02*
X0008190Y0162300D01*
X0004698Y0138958D02*
X0004380Y0138958D01*
M02*
